<?xml version="1.0" standalone="no"?>
<!DOCTYPE svg PUBLIC "-//W3C//DTD SVG 20010904//EN"
 "http://www.w3.org/TR/2001/REC-SVG-20010904/DTD/svg10.dtd">
<svg version="1.0" xmlns="http://www.w3.org/2000/svg"
 width="512.000000pt" height="512.000000pt" viewBox="0 0 512.000000 512.000000"
 preserveAspectRatio="xMidYMid meet">
<metadata>
Created by potrace 1.11, written by Peter Selinger 2001-2013
</metadata>
<g transform="translate(0.000000,512.000000) scale(0.100000,-0.100000)"
fill="#000000" stroke="none">
<path d="M3995 4804 c-66 -64 -210 -202 -319 -307 -110 -106 -252 -242 -315
-304 -64 -61 -140 -134 -170 -162 -47 -44 -384 -369 -557 -536 -34 -33 -166
-161 -294 -285 -128 -124 -269 -260 -314 -304 -635 -614 -977 -953 -1046
-1036 -58 -71 -145 -200 -179 -268 l-22 -42 39 6 c53 8 119 -22 159 -72 65
-84 242 -361 251 -396 14 -50 7 -119 -18 -172 -24 -51 -184 -210 -227 -227
-61 -23 -135 -16 -168 17 -27 28 -16 -3 24 -62 40 -60 161 -188 193 -205 13
-7 18 -6 18 3 1 61 148 235 241 285 70 38 147 25 200 -33 43 -48 247 -358 254
-387 4 -15 12 -30 17 -33 6 -4 121 -8 257 -10 135 -3 306 -6 379 -8 102 -2
132 0 132 10 0 7 -5 16 -11 20 -6 3 -19 26 -30 51 -27 64 -25 147 6 209 28 57
161 191 220 223 63 33 133 25 183 -22 22 -21 41 -46 177 -247 68 -102 105
-171 105 -201 0 -20 4 -21 43 -15 147 23 380 122 507 217 205 152 316 314 377
549 3 14 8 155 10 313 l5 288 -63 95 c-71 109 -66 110 -109 -19 -24 -70 -32
-77 -67 -52 l-22 15 45 132 c43 128 71 175 98 165 7 -3 35 -37 60 -76 26 -39
49 -71 52 -71 2 0 4 119 4 265 l0 265 -40 -26 c-77 -51 -161 -43 -221 23 -48
51 -246 357 -261 403 -19 57 -14 122 14 178 21 45 101 131 181 195 105 85 202
59 288 -75 17 -27 33 -48 35 -48 2 0 4 161 4 359 l0 358 -39 6 c-21 2 -53 15
-71 28 -36 26 -261 357 -287 420 -20 52 -13 140 16 198 30 57 165 188 224 216
48 23 100 24 140 4 16 -9 17 1 17 146 0 85 -1 155 -2 155 -2 -1 -57 -53 -123
-116z m-338 -902 c87 -130 161 -238 166 -240 4 -2 7 -8 7 -12 0 -5 18 -35 40
-66 31 -44 37 -60 30 -75 -13 -23 -51 -50 -62 -43 -4 3 -85 121 -179 262 -95
141 -173 259 -175 261 -7 8 -14 -6 -44 -89 -17 -46 -32 -85 -34 -87 -7 -7 -56
20 -56 31 0 5 18 67 41 136 28 87 48 132 65 148 14 12 29 20 34 17 5 -3 80
-112 167 -243z m-446 -126 c19 -8 46 -27 60 -43 52 -56 251 -363 264 -407 18
-58 11 -125 -19 -184 -25 -50 -164 -190 -213 -215 -63 -33 -138 -23 -190 25
-37 34 -259 369 -273 413 -16 48 -9 129 15 180 23 49 167 195 221 223 46 25
89 27 135 8z m-533 -542 c42 -26 51 -39 172 -218 129 -194 142 -222 142 -293
1 -79 -37 -145 -131 -236 -93 -89 -140 -116 -198 -112 -75 4 -105 33 -235 228
-66 99 -127 196 -135 216 -24 56 -20 132 11 194 31 65 167 200 229 227 49 22
105 20 145 -6z m-411 -770 c111 -164 202 -305 202 -313 1 -18 -38 -61 -55 -61
-7 0 -80 100 -162 223 -163 243 -202 300 -206 304 -2 2 -13 -25 -25 -59 -41
-117 -43 -119 -64 -116 -41 6 -41 28 -1 152 36 115 74 181 98 173 6 -2 102
-138 213 -303z m1182 175 c17 -13 90 -110 161 -216 112 -169 129 -200 135
-245 13 -103 -16 -167 -121 -269 -93 -92 -140 -121 -198 -122 -76 -1 -109 30
-243 230 -65 98 -127 197 -136 219 -21 53 -14 140 14 197 27 53 171 194 224
219 52 25 120 19 164 -13z m-1661 -243 c15 -8 39 -27 53 -43 37 -39 242 -350
259 -391 20 -52 16 -134 -12 -189 -27 -55 -165 -196 -220 -224 -75 -39 -153
-19 -211 54 -56 69 -218 317 -240 366 -27 61 -24 131 8 197 29 60 155 188 217
222 47 25 106 29 146 8z m1108 -291 c43 -33 273 -374 290 -430 15 -50 10 -118
-11 -168 -8 -21 -50 -74 -92 -118 -77 -81 -133 -121 -186 -133 -37 -9 -96 9
-128 38 -36 32 -249 350 -272 406 -23 55 -19 137 8 195 26 53 126 157 198 205
51 34 63 38 107 35 36 -2 61 -11 86 -30z m-1681 -229 c11 -20 23 -36 27 -36 5
0 8 -5 8 -10 0 -6 38 -65 83 -133 202 -295 257 -380 257 -395 0 -15 -45 -62
-59 -62 -3 0 -85 118 -181 261 -96 143 -177 262 -181 265 -4 2 -21 -37 -39
-86 -18 -50 -38 -90 -44 -90 -15 1 -46 25 -46 36 0 5 18 64 40 132 55 172 90
202 135 118z m2535 -252 c34 -21 35 -22 175 -229 124 -183 136 -207 136 -279
1 -85 -30 -143 -128 -237 -129 -124 -207 -146 -291 -83 -39 31 -263 362 -282
418 -19 60 -16 128 10 183 40 83 195 224 269 245 27 8 82 -1 111 -18z m-1459
-24 c20 -6 50 -24 67 -40 37 -35 248 -347 269 -399 24 -56 20 -132 -11 -194
-32 -65 -168 -200 -229 -227 -64 -28 -146 -12 -188 36 -35 41 -240 354 -255
390 -23 54 -21 131 4 187 35 78 178 217 250 243 46 16 48 16 93 4z m1046 -750
c112 -167 203 -308 203 -315 0 -6 -13 -24 -29 -39 l-29 -28 -25 34 c-13 18
-96 140 -183 271 l-158 239 -23 -64 c-45 -123 -49 -129 -78 -116 -14 6 -25 19
-25 28 0 9 18 70 41 135 38 113 70 170 93 162 5 -2 101 -140 213 -307z m-1420
-39 c111 -166 203 -308 203 -315 0 -7 -13 -24 -28 -39 -27 -26 -29 -26 -44
-10 -8 10 -89 128 -178 263 -89 135 -166 249 -170 253 -4 5 -18 -22 -30 -60
-13 -37 -29 -80 -36 -95 -13 -25 -17 -26 -39 -16 -14 6 -25 18 -25 27 0 9 17
69 38 134 36 110 72 172 96 164 5 -2 101 -139 213 -306z"/>
<path d="M3092 3677 c-12 -7 -51 -41 -86 -75 -71 -68 -91 -111 -83 -173 5 -36
61 -139 79 -147 5 -2 8 -8 8 -13 0 -12 145 -221 167 -240 51 -45 100 -28 195
63 102 99 111 167 38 271 -20 30 -39 58 -41 63 -14 33 -153 226 -175 243 -30
24 -68 26 -102 8z"/>
<path d="M2535 3141 c-16 -10 -58 -46 -91 -79 -68 -68 -88 -116 -74 -179 12
-49 236 -381 270 -397 14 -7 32 -12 40 -11 8 1 24 3 35 3 12 1 55 36 97 77 84
83 103 126 85 195 -11 43 -233 377 -260 392 -36 19 -71 19 -102 -1z"/>
<path d="M3295 2558 c-11 -6 -50 -40 -87 -76 -68 -66 -89 -105 -84 -152 2 -14
4 -33 5 -42 1 -19 233 -372 251 -383 7 -4 27 -11 46 -15 42 -10 70 7 157 93
56 55 66 70 72 110 4 26 4 58 1 71 -8 34 -222 355 -255 383 -28 25 -73 29
-106 11z"/>
<path d="M1649 2292 c-43 -29 -130 -115 -145 -144 -8 -15 -14 -50 -14 -77 0
-48 6 -60 123 -233 139 -208 162 -229 226 -202 40 17 145 115 167 156 20 38
24 85 11 122 -15 45 -221 350 -253 375 -32 25 -80 27 -115 3z"/>
<path d="M2748 2027 c-34 -15 -124 -100 -155 -145 -16 -24 -23 -49 -23 -81 0
-51 16 -81 165 -303 76 -113 101 -138 143 -142 39 -5 73 16 146 89 76 75 96
124 76 188 -11 38 -202 331 -244 374 -26 28 -73 37 -108 20z"/>
<path d="M3617 1536 c-15 -6 -58 -42 -97 -80 -72 -71 -88 -104 -82 -171 3 -35
21 -67 149 -255 104 -154 130 -177 187 -166 38 7 170 128 186 170 13 35 15 94
4 122 -16 40 -227 350 -250 367 -30 22 -64 27 -97 13z"/>
<path d="M2195 1496 c-16 -8 -60 -44 -96 -80 -101 -101 -108 -157 -33 -272 21
-32 43 -67 49 -76 5 -9 41 -62 79 -118 112 -164 147 -168 283 -31 58 58 72 84
78 146 3 29 -28 86 -133 244 -91 136 -123 177 -149 187 -39 17 -40 17 -78 0z"/>
<path d="M3975 4524 c-47 -24 -154 -135 -166 -172 -24 -73 -10 -108 117 -297
109 -162 147 -205 184 -205 7 0 10 100 10 310 l0 309 -30 31 c-16 16 -35 30
-42 31 -7 0 -21 2 -30 4 -9 2 -28 -3 -43 -11z"/>
<path d="M3866 3095 c-42 -15 -148 -112 -173 -159 -19 -36 -23 -83 -10 -121
12 -34 194 -310 239 -361 36 -41 82 -45 134 -13 62 38 64 46 64 234 l0 171
-77 114 c-92 135 -119 155 -177 135z"/>
<path d="M782 1453 c-64 -31 -71 -57 -78 -271 l-4 -143 80 -119 c64 -94 88
-121 113 -129 58 -19 76 -10 178 89 60 59 77 93 72 153 -3 42 -18 70 -120 224
-142 213 -167 233 -241 196z"/>
<path d="M2735 691 c-33 -14 -153 -135 -165 -167 -26 -66 -9 -128 60 -223 l32
-43 208 4 c115 2 212 6 216 10 3 4 4 18 0 31 -8 32 -210 336 -247 370 -30 27
-65 33 -104 18z"/>
<path d="M1289 635 c-102 -76 -161 -167 -151 -233 9 -56 218 -117 410 -121
l114 -2 -23 38 c-59 98 -205 306 -227 324 -34 26 -81 24 -123 -6z"/>
</g>
</svg>
