<?xml version="1.0" encoding="utf-8"?>
<!-- Generator: Adobe Illustrator 23.1.0, SVG Export Plug-In . SVG Version: 6.00 Build 0)  -->
<svg version="1.1" id="Layer_1" xmlns="http://www.w3.org/2000/svg" xmlns:xlink="http://www.w3.org/1999/xlink" x="0px" y="0px"
	 viewBox="0 0 50 50" style="enable-background:new 0 0 50 50;" xml:space="preserve">
<style type="text/css">
	.st0{fill:#FFFFFF;}
</style>
<g>
	<path class="st0" d="M7.31,7.36C12.18,2.45,18.08,0,25,0c6.89,0,12.79,2.45,17.69,7.36C47.56,12.23,50,18.11,50,25
		s-2.44,12.77-7.31,17.64C37.79,47.55,31.89,50,25,50c-6.92,0-12.82-2.45-17.69-7.36C2.44,37.77,0,31.89,0,25S2.44,12.23,7.31,7.36z
		 M11.27,11.24v0.09c0.03,2.41,1.11,3.61,3.25,3.61c0.24,0,0.49-0.02,0.76-0.05c1.9-0.21,2.96-1.25,3.16-3.11v-0.45
		c0-1.08-0.37-1.99-1.11-2.71c-0.65-0.63-1.44-0.95-2.36-0.95c-0.21,0-0.4,0.02-0.58,0.05C12.31,7.99,11.27,9.16,11.27,11.24z
		 M17.96,17.64l-0.45,0.05c-0.89,0-2.79-0.03-5.7-0.09c-0.03,0-0.04,0.05-0.04,0.14v19.9h6.11c0.06-2.53,0.09-5.85,0.09-9.97V17.64z
		 M39.17,19.18c-1.19-1.38-2.94-2.08-5.26-2.08H33.2c-2.26,0.12-4.1,1.2-5.53,3.25V17.6c-2.82,0.06-4.66,0.09-5.53,0.09l-0.4-0.05
		v19.95l0.45-0.05c0.89,0,2.79,0.03,5.7,0.09c0.06-0.66,0.09-1.56,0.09-2.71c0-0.78-0.01-1.68-0.04-2.71
		c-0.03-1.32-0.04-2.44-0.04-3.34c0-0.93,0.01-1.67,0.04-2.21c0.06-0.99,0.24-1.79,0.53-2.39c0.65-1.26,1.54-1.9,2.67-1.9
		c0.56,0,1.2,0.17,1.92,0.5c1.13,0.51,1.69,3.22,1.69,8.12v6.59c1.04,0.03,2.08,0.05,3.12,0.05s2.08-0.02,3.12-0.05
		c0,0.12,0.01,0.18,0.04,0.18s0.04-1.79,0.04-5.37v-5.05C41.06,23.41,40.42,20.68,39.17,19.18z"/>
</g>
</svg>
