<svg xmlns="http://www.w3.org/2000/svg" viewBox="0 0 460 218"><defs><style>.cls-1{fill:#fff;}</style></defs><title>Artboard 1</title><g id="Layer_4" data-name="Layer 4"><path class="cls-1" d="M185.73,146.86c0-4.73,3.43-8.19,9.1-8.19H207a.87.87,0,0,1,.87.86v3a.87.87,0,0,1-.87.86H195.7a3.86,3.86,0,0,0-4.12,3.47c0,6.72,17.12,2.64,17.12,14.3,0,5.24-3.47,8.67-9.53,8.67a54.91,54.91,0,0,1-9.15-1.09c-1.64-.3-3.29-.69-4.93-1.08-.57-.13-.87-.43-.87-.87v-3.25a.87.87,0,0,1,.87-.86c1.6.39,3.2.78,4.8,1.08,1.87.39,3,.56,4.42.74a27.56,27.56,0,0,0,4,.34c2.6,0,4.5-1.73,4.5-3.68C202.8,154.48,185.73,158.6,185.73,146.86Z"/><path class="cls-1" d="M242.57,161c0,5.25-3.42,8.67-9.53,8.67h-7.58c-6.11,0-9.53-3.42-9.53-8.67v-14.3c0-5.24,3.42-8.66,9.53-8.66H233c6.11,0,9.53,3.42,9.53,8.66Zm-5.85-13.65c0-3-1.51-4.55-4.55-4.55h-5.84c-3,0-4.55,1.52-4.55,4.55v13c0,3,1.51,4.55,4.55,4.55h5.84c3,0,4.55-1.51,4.55-4.55Z"/><path class="cls-1" d="M257.56,157.52v10.61a.87.87,0,0,1-.87.87h-4.12a.87.87,0,0,1-.86-.87v-28.6a.87.87,0,0,1,.86-.86h21.88a.87.87,0,0,1,.87.86v3a.87.87,0,0,1-.87.86H257.56v9.32h11.69a.87.87,0,0,1,.87.87v3a.87.87,0,0,1-.87.87Z"/><path class="cls-1" d="M296.41,143.43v24.7a.87.87,0,0,1-.86.87h-4.12a.88.88,0,0,1-.87-.87v-24.7h-9.31a.87.87,0,0,1-.87-.86v-3a.87.87,0,0,1,.87-.86h24.48a.86.86,0,0,1,.86.86v3a.86.86,0,0,1-.86.86Z"/><path class="cls-1" d="M333.67,147.33l-6.07,20.8a1,1,0,0,1-1.08.87H321.1a1,1,0,0,1-1.08-.87l-8.23-28.6a.65.65,0,0,1,.65-.86h4.33a1,1,0,0,1,1.08.86L324.14,161h.21l6.07-21.45a1,1,0,0,1,1.08-.86h4.55a1,1,0,0,1,1.08.86L343.2,161h.22l6.28-21.45a1,1,0,0,1,1.08-.86h4.33a.65.65,0,0,1,.65.86l-8.23,28.6a1,1,0,0,1-1.08.87H341a1,1,0,0,1-1.08-.87l-6.07-20.8Z"/><path class="cls-1" d="M369.84,139.53a1.24,1.24,0,0,1,1.08-.86h5.63a1.24,1.24,0,0,1,1.08.86l11.05,28.6a.63.63,0,0,1-.65.87H383.7a1.31,1.31,0,0,1-1.3-.87l-1.95-5.63H367l-1.95,5.63a1.35,1.35,0,0,1-1.3.87h-4.33a.63.63,0,0,1-.65-.87Zm3.77,5.64L369,157.73h9.53l-4.64-12.56Z"/><path class="cls-1" d="M421.21,149.28a7.44,7.44,0,0,1-2.9,6,10,10,0,0,1-2.95,1.61v.21l7.59,11c.3.48,0,.87-.44.87h-4.76a1.49,1.49,0,0,1-1.3-.87l-6.93-10.4h-8v10.4a.87.87,0,0,1-.87.87h-4.11a.87.87,0,0,1-.87-.87v-28.6a.87.87,0,0,1,.87-.86h14.73c6.11,0,10,3.9,10,8.45ZM401.5,153h8.88c3.08,0,5-1.91,5-4.34v-.86c0-2.43-1.9-4.34-5-4.34H401.5Z"/><path class="cls-1" d="M436.37,164.23h17.76a.87.87,0,0,1,.87.87v3a.87.87,0,0,1-.87.87H431.26a.67.67,0,0,1-.74-.74V139.53a.87.87,0,0,1,.87-.86H453.7a.87.87,0,0,1,.87.86v3a.87.87,0,0,1-.87.86H436.37v7.8H448.5a.87.87,0,0,1,.87.87v3a.87.87,0,0,1-.87.87H436.37Z"/><path class="cls-1" d="M196.83,185.72V205a.68.68,0,0,1-.68.68H193a.67.67,0,0,1-.68-.68V185.72H185a.67.67,0,0,1-.67-.67v-2.37A.67.67,0,0,1,185,182h19.07a.68.68,0,0,1,.68.67v2.37a.68.68,0,0,1-.68.67Z"/><path class="cls-1" d="M213.72,201.93h13.83a.67.67,0,0,1,.68.67V205a.67.67,0,0,1-.68.68H209.73a.51.51,0,0,1-.57-.57V182.68a.67.67,0,0,1,.68-.67h17.38a.67.67,0,0,1,.67.67v2.37a.67.67,0,0,1-.67.67h-13.5v6.08h9.45a.67.67,0,0,1,.67.67v2.37a.67.67,0,0,1-.67.67h-9.45Z"/><path class="cls-1" d="M249.51,182a.67.67,0,0,1,.67.67v2.37a.67.67,0,0,1-.67.67h-9.28a3.68,3.68,0,0,0-3.55,3.71v9.46a3.46,3.46,0,0,0,3.55,3.54,39.47,39.47,0,0,0,6.54-.84c1.25-.24,2.5-.54,3.75-.85a.69.69,0,0,1,.68.68V204c0,.34-.24.58-.68.68-1.28.3-2.56.6-3.85.84-1.48.3-2.43.44-3.61.61a33.58,33.58,0,0,1-3.51.24c-4.76,0-7.42-2.71-7.42-6.93V188.93c0-4.22,2.66-6.92,7.42-6.92Z"/><path class="cls-1" d="M270.81,195.51H259.5V205a.67.67,0,0,1-.67.68h-3.21a.68.68,0,0,1-.68-.68V182.68a.68.68,0,0,1,.68-.67h3.21a.67.67,0,0,1,.67.67v9.12h11.31v-9.12a.67.67,0,0,1,.67-.67h3.21a.67.67,0,0,1,.67.67V205a.67.67,0,0,1-.67.68h-3.21a.67.67,0,0,1-.67-.68Z"/><path class="cls-1" d="M285.37,189.43h-.16V205a.68.68,0,0,1-.68.68h-3.21a.67.67,0,0,1-.67-.68V182.68a.67.67,0,0,1,.67-.67h3.38a1.14,1.14,0,0,1,1,.67l10.46,15.53h.17V182.68A.68.68,0,0,1,297,182h3.2a.68.68,0,0,1,.68.67V205a.68.68,0,0,1-.68.68h-3.37a1.14,1.14,0,0,1-1-.68Z"/><path class="cls-1" d="M326.42,199.39c0,4.09-2.66,6.76-7.42,6.76h-5.91c-4.75,0-7.42-2.67-7.42-6.76V188.25c0-4.08,2.67-6.75,7.42-6.75H319c4.76,0,7.42,2.67,7.42,6.75Zm-4.55-10.63c0-2.36-1.18-3.55-3.55-3.55h-4.55c-2.36,0-3.55,1.19-3.55,3.55v10.13c0,2.36,1.19,3.54,3.55,3.54h4.55q3.56,0,3.55-3.54Z"/><path class="cls-1" d="M335.52,201.93h12.82a.68.68,0,0,1,.68.67V205a.68.68,0,0,1-.68.68H331.63A.67.67,0,0,1,331,205V182.68a.67.67,0,0,1,.67-.67h3.21a.68.68,0,0,1,.68.67Z"/><path class="cls-1" d="M407.77,201.93v3a.68.68,0,0,1-.68.68h-3.21a.67.67,0,0,1-.67-.68V182.68a.67.67,0,0,1,.67-.67h3.21a.68.68,0,0,1,.68.67Z"/><path class="cls-1" d="M372.31,199.39c0,4.09-2.66,6.76-7.42,6.76H359c-4.76,0-7.42-2.67-7.42-6.76V188.25c0-4.08,2.66-6.75,7.42-6.75h5.91c4.76,0,7.42,2.67,7.42,6.75Zm-4.55-10.63c0-2.36-1.19-3.55-3.55-3.55h-4.55c-2.37,0-3.55,1.19-3.55,3.55v10.13q0,3.54,3.55,3.54h4.55c2.36,0,3.55-1.18,3.55-3.54Z"/><path class="cls-1" d="M394.36,182a.67.67,0,0,1,.67.67v2.37a.67.67,0,0,1-.67.67h-9.28a3.68,3.68,0,0,0-3.55,3.71v9.46a3.46,3.46,0,0,0,3.55,3.54,29.64,29.64,0,0,0,4.89-.61c.94-.16,1.89-.33,2.87-.57v-5.57h-5.06a.67.67,0,0,1-.68-.67v-2.37a.67.67,0,0,1,.68-.67h8.77a.67.67,0,0,1,.67.67v11c0,.38-.3.58-.67.68-1.49.37-3,.71-4.42,1-1.72.37-2.8.54-4.05.71a29.29,29.29,0,0,1-3.68.31c-4.76,0-7.42-2.71-7.42-6.93V188.93c0-4.22,2.66-6.92,7.42-6.92Z"/><path class="cls-1" d="M418.47,201.93h13.84a.67.67,0,0,1,.67.67V205a.67.67,0,0,1-.67.68H414.49a.51.51,0,0,1-.57-.57V182.68a.67.67,0,0,1,.67-.67H432a.68.68,0,0,1,.68.67v2.37a.68.68,0,0,1-.68.67h-13.5v6.08h9.45a.68.68,0,0,1,.68.67v2.37a.68.68,0,0,1-.68.67h-9.45Z"/><path class="cls-1" d="M436.71,188.39c0-3.68,2.67-6.38,7.09-6.38h9.45a.67.67,0,0,1,.67.67v2.37a.67.67,0,0,1-.67.67h-8.77a3,3,0,0,0-3.21,2.7c0,5.23,13.33,2.06,13.33,11.14,0,4.09-2.7,6.76-7.42,6.76a42.29,42.29,0,0,1-7.13-.85c-1.28-.24-2.56-.54-3.84-.84-.44-.1-.68-.34-.68-.68v-2.53a.69.69,0,0,1,.68-.68c1.25.31,2.49.61,3.74.85,1.45.3,2.37.44,3.45.57a20.53,20.53,0,0,0,3.1.27c2,0,3.51-1.35,3.51-2.87C450,194.33,436.71,197.54,436.71,188.39Z"/></g><g id="Layer_5" data-name="Layer 5"><path class="cls-1" d="M255.56,67.24H240.3V51.84h-39v61.32H186.18V36.58H240.3Q252.56,36.58,255,47a21.54,21.54,0,0,1,.52,4.83Z"/><path class="cls-1" d="M338.24,113.16H277.6a14.55,14.55,0,0,1-10.82-4.37,14.93,14.93,0,0,1-4.31-10.9V82.5a15.36,15.36,0,0,1,4.11-10.83q4.11-4.42,11-4.43h45.51V51.84H262.47V36.58h60.64A14.54,14.54,0,0,1,334,41a15,15,0,0,1,4.23,10.89ZM323.11,97.89V82.5H277.6V97.89Z"/><path class="cls-1" d="M368.24,113.16H353.11V36.58h15.13Z"/><path class="cls-1" d="M453.27,113.16H438.14V51.84h-41.6v61.32H381.41V36.58h56.73q12.25,0,14.74,10.43a29,29,0,0,1,.39,4.83Z"/><path class="cls-1" d="M351.5,19.63a9.18,9.18,0,1,1,9.17,9.18A9.17,9.17,0,0,1,351.5,19.63Z"/><path class="cls-1" d="M114.31,87.89a5.07,5.07,0,0,0,3.61,2.51,5,5,0,0,0,4-1.6L125.87,85a7.19,7.19,0,0,0,.95-9.34L118,62.54A5.1,5.1,0,0,0,114.38,60a3.55,3.55,0,0,0-.46,0,5.2,5.2,0,0,0-3.57,1.64l-3.92,3.76a7.19,7.19,0,0,0-1,9.34ZM101.81,196a5,5,0,0,0-3.61-2.51,3.44,3.44,0,0,0-.46,0,5.23,5.23,0,0,0-3.57,1.63l-3.92,3.77a7.18,7.18,0,0,0-.94,9.34l3.14,4.68,8.37.15a82,82,0,0,0,11.05-.59,7.75,7.75,0,0,0-1.23-3.29Zm-51.48-46.6A5.07,5.07,0,0,0,54,151.87a5,5,0,0,0,4-1.6l3.92-3.77a7.17,7.17,0,0,0,1-9.34L54,124a5.13,5.13,0,0,0-3.62-2.51,3.39,3.39,0,0,0-.45,0,5.17,5.17,0,0,0-3.57,1.63l-3.92,3.76a7.17,7.17,0,0,0-1,9.34ZM89.6,111.63a5.08,5.08,0,0,0,3.61,2.52,5,5,0,0,0,4-1.61l3.92-3.77a7.19,7.19,0,0,0,1-9.34L93.28,86.28a5.1,5.1,0,0,0-3.61-2.51l-.46,0a5.17,5.17,0,0,0-3.57,1.63l-3.92,3.76a7.19,7.19,0,0,0-1,9.34ZM38.37,197.69a5.1,5.1,0,0,0-3.61-2.51,3.55,3.55,0,0,0-.46,0,5.18,5.18,0,0,0-3.57,1.64l-3.92,3.76a7.09,7.09,0,0,0-1.95,7.16,35.13,35.13,0,0,0,16.65,4.23l6.34.11a8.45,8.45,0,0,0-.66-1.21ZM153.65,22.29a3.39,3.39,0,0,0-.45,0,5.15,5.15,0,0,0-3.57,1.63l-3.92,3.76a7.17,7.17,0,0,0-1,9.34l8.82,13.15a5.07,5.07,0,0,0,3.62,2.51,2.82,2.82,0,0,0,.58,0V25.57l-.52-.77A5.08,5.08,0,0,0,153.65,22.29Zm-5.49,63.92-.45,0a5.19,5.19,0,0,0-3.57,1.63l-3.92,3.76a7.17,7.17,0,0,0-.95,9.34l8.82,13.15a5.1,5.1,0,0,0,3.62,2.52,5,5,0,0,0,4-1.61l2.05-2V97.67l-6-9A5.1,5.1,0,0,0,148.16,86.21ZM14.69,189.6a5,5,0,0,0,4-1.61l3.92-3.76a7.17,7.17,0,0,0,.95-9.34l-8.82-13.16a5.13,5.13,0,0,0-3.62-2.51l-.45,0a5.21,5.21,0,0,0-3.57,1.63l-.8.77a49.55,49.55,0,0,0-1,16.89l5.76,8.59A5.12,5.12,0,0,0,14.69,189.6ZM123.44,110a3.4,3.4,0,0,0-.45,0,5.19,5.19,0,0,0-3.57,1.63l-3.92,3.77a7.17,7.17,0,0,0-1,9.34l8.82,13.14a5.1,5.1,0,0,0,3.62,2.52,5,5,0,0,0,4-1.61l3.92-3.76a7.17,7.17,0,0,0,.95-9.34l-8.83-13.15A5,5,0,0,0,123.44,110ZM137,155.7a5.2,5.2,0,0,0-3.57,1.64l-3.92,3.76a7.18,7.18,0,0,0-.94,9.34l8.82,13.15a4.62,4.62,0,0,0,7.64.91l3.92-3.77a7.19,7.19,0,0,0,.95-9.34l-8.83-13.15a5.1,5.1,0,0,0-3.61-2.51A3.44,3.44,0,0,0,137,155.7ZM23.91,134.31A74.78,74.78,0,0,0,9.76,152.85a22.44,22.44,0,0,0-1.24,2.35,7.24,7.24,0,0,1,3.61-.6c2.26.24,4.32,1.66,6,4.11l8.82,13.15h0c3.41,5.07,2.64,11-2,15.47L21,191.1c-2.15,2.06-4.41,3.14-6.59,3.14a5.37,5.37,0,0,1-.7,0,7.45,7.45,0,0,1-4.46-2.27,38.06,38.06,0,0,0,11.29,13,12.85,12.85,0,0,1,4.06-7.56l3.92-3.77c2.37-2.27,4.87-3.33,7.25-3.08s4.31,1.66,6,4.1l8.83,13.15a12.39,12.39,0,0,1,1.85,4.33l34.62.61L86,211.18c-3.4-5.07-2.62-11,2.06-15.51l3.92-3.76c2.37-2.27,4.87-3.34,7.25-3.09s4.32,1.66,6,4.11L114,206.08a12,12,0,0,1,2.06,5.69c26.42-4.79,41.74-22.93,41.74-41.66V150.4l-5.68-8.49-2.66,7.52c-.15.37-.29.68-.61.78a.88.88,0,0,1-.74-.14l-1.3-.68a.93.93,0,0,1-.4-1.21l3.18-9.79a3.79,3.79,0,0,1,.82-1.66l1.37-1.31a1,1,0,0,1,.77-.32,1,1,0,0,1,.69.51l4.56,6.79V118.28a9.6,9.6,0,0,1-6.38,3c-.23,0-.46,0-.69,0-2.26-.24-4.32-1.65-6-4.09L135.93,104c-3.41-5.07-2.62-11,2.06-15.51l3.92-3.76c2.36-2.28,4.87-3.34,7.24-3.09s4.32,1.66,6,4.1l2.66,4V57.24a6.54,6.54,0,0,1-.89.06l-.69,0c-2.26-.24-4.32-1.66-6-4.09L141.42,40C138,35,138.8,29,143.48,24.52l3.92-3.77c2.36-2.27,4.87-3.33,7.24-3.08a7,7,0,0,1,3.14,1.18V5S74.57,84.51,23.91,134.31ZM104.2,62.26l3.92-3.77c2.37-2.27,4.87-3.33,7.25-3.08s4.31,1.66,6,4.1l8.83,13.15h0c3.41,5.08,2.63,11-2,15.48l-3.92,3.77C122.06,94,119.8,95,117.62,95q-.34,0-.69,0c-2.26-.24-4.32-1.66-6-4.09l-8.83-13.15C98.73,72.7,99.52,66.75,104.2,62.26ZM79.49,86l3.92-3.76c2.37-2.28,4.87-3.34,7.25-3.09s4.31,1.66,6,4.11l8.83,13.15h0c3.41,5.07,2.63,11-2,15.47l-3.92,3.77c-2.15,2.06-4.41,3.14-6.59,3.14-.23,0-.46,0-.7,0-2.25-.24-4.31-1.65-5.95-4.09l-8.83-13.15C74,96.44,74.81,90.5,79.49,86ZM59.34,114l3.18-9.79a3.84,3.84,0,0,1,.82-1.66l1.37-1.31a.92.92,0,0,1,.77-.31,1,1,0,0,1,.69.5l17.91,26.7a1.15,1.15,0,0,1-.14,1.54l-1.71,1.64a1.06,1.06,0,0,1-.72.35h-.09a1,1,0,0,1-.69-.5L65.05,107.68l-2.66,7.52c-.14.37-.29.68-.6.79a.87.87,0,0,1-.74-.15l-1.31-.68A.93.93,0,0,1,59.34,114Zm-19.11,9.78L44.15,120c2.36-2.28,4.86-3.34,7.24-3.09s4.32,1.66,6,4.1l8.82,13.16h0c3.41,5.08,2.64,11-2,15.48l-3.92,3.77c-2.15,2.06-4.41,3.14-6.59,3.14-.24,0-.47,0-.7,0-2.26-.24-4.32-1.65-6-4.09l-8.82-13.15C34.76,134.17,35.55,128.23,40.23,123.73Zm2,45.6h-.09a1,1,0,0,1-.68-.5L25.79,145.41l-2.65,7.51c-.15.37-.3.68-.61.79a.87.87,0,0,1-.74-.15l-1.31-.68a.94.94,0,0,1-.4-1.21l3.19-9.79a3.74,3.74,0,0,1,.82-1.66l1.36-1.31a1,1,0,0,1,.78-.31,1,1,0,0,1,.69.5l17.9,26.7a1.14,1.14,0,0,1-.14,1.54L43,169A1.08,1.08,0,0,1,42.25,169.33Zm26.05,34-1.71,1.64a1.06,1.06,0,0,1-.72.35h-.09a1,1,0,0,1-.69-.5L49.41,181.36l-2.66,7.51c-.15.38-.29.68-.6.79a.94.94,0,0,1-.75-.14l-1.3-.69a.92.92,0,0,1-.4-1.2l3.18-9.8a3.74,3.74,0,0,1,.82-1.65l1.37-1.31a.93.93,0,0,1,.77-.32,1,1,0,0,1,.69.5l17.91,26.7A1.15,1.15,0,0,1,68.3,203.29Zm19.48-17.74-3.92,3.77c-2.14,2.06-4.41,3.14-6.59,3.14-.23,0-.46,0-.69,0-2.26-.24-4.32-1.65-6-4.09L61.8,175.18c-3.41-5.07-2.62-11,2.06-15.51l3.91-3.76c2.37-2.27,4.88-3.34,7.25-3.09s4.32,1.66,6,4.11l8.83,13.15C93.22,175.15,92.44,181.08,87.78,185.55ZM102,168.73a5.32,5.32,0,0,1-.69,0c-2.26-.24-4.32-1.65-6-4.08l-8.82-13.15c-3.41-5.08-2.62-11,2.06-15.51l3.92-3.77c2.36-2.27,4.87-3.34,7.24-3.09s4.32,1.66,6,4.11l8.82,13.15c3.41,5.07,2.63,11-2,15.48l-3.92,3.76C106.41,167.66,104.14,168.73,102,168.73Zm29.78,32.83L130,203.2a1.1,1.1,0,0,1-.73.35h-.09a1,1,0,0,1-.69-.5l-15.68-23.42-2.65,7.52c-.15.37-.3.68-.61.79a.91.91,0,0,1-.74-.15l-1.31-.68a.93.93,0,0,1-.4-1.21l3.19-9.79a3.84,3.84,0,0,1,.81-1.66l1.37-1.31a1,1,0,0,1,.77-.31,1,1,0,0,1,.69.5L131.88,200A1.15,1.15,0,0,1,131.74,201.56Zm12.66-46.35,8.83,13.15c3.41,5.08,2.63,11-2,15.48l-3.92,3.77a9.73,9.73,0,0,1-6.59,3.13l-.69,0c-2.26-.24-4.32-1.66-6-4.09l-8.82-13.15c-3.41-5.07-2.62-11,2-15.51l3.92-3.77c2.37-2.27,4.88-3.33,7.25-3.08S142.76,152.77,144.4,155.21Zm-5.18-32.61c3.41,5.07,2.63,11-2,15.48l-3.92,3.76c-2.15,2.06-4.42,3.14-6.6,3.14a5.32,5.32,0,0,1-.69,0c-2.26-.24-4.32-1.65-6-4.08l-8.82-13.16c-3.41-5.07-2.62-11,2.06-15.51l3.92-3.76c2.36-2.27,4.87-3.34,7.24-3.09s4.32,1.66,6,4.11Zm8.85-56a1.15,1.15,0,0,1-.14,1.54l-1.71,1.64a1.06,1.06,0,0,1-.72.35h-.09a1,1,0,0,1-.69-.5L129,46.2l-2.66,7.51c-.14.38-.29.68-.6.79a.9.9,0,0,1-.75-.14l-1.3-.69a.92.92,0,0,1-.4-1.2l3.18-9.79a3.79,3.79,0,0,1,.82-1.66l1.37-1.31a1,1,0,0,1,.77-.32,1,1,0,0,1,.69.5ZM77.64,160A5.1,5.1,0,0,0,74,157.44l-.46,0A5.23,5.23,0,0,0,70,159.05l-3.91,3.76a7.17,7.17,0,0,0-1,9.34L74,185.3a5.08,5.08,0,0,0,3.61,2.52,5,5,0,0,0,4-1.61l3.92-3.77a7.19,7.19,0,0,0,1-9.34Zm33.52-10.57-8.82-13.15a5.1,5.1,0,0,0-3.62-2.51,3.4,3.4,0,0,0-.45,0,5.19,5.19,0,0,0-3.57,1.63l-3.92,3.77a7.17,7.17,0,0,0-1,9.34l8.82,13.15a5.13,5.13,0,0,0,3.62,2.51,5,5,0,0,0,4-1.61l3.92-3.76A7.17,7.17,0,0,0,111.16,149.38Z"/></g></svg>