<?xml version="1.0" encoding="utf-8"?>
<!-- Generator: Adobe Illustrator 23.1.0, SVG Export Plug-In . SVG Version: 6.00 Build 0)  -->
<svg version="1.1" id="Layer_1" xmlns="http://www.w3.org/2000/svg" xmlns:xlink="http://www.w3.org/1999/xlink" x="0px" y="0px"
	 viewBox="0 0 2716.86 2323.77" style="enable-background:new 0 0 2716.86 2323.77;" xml:space="preserve">
<style type="text/css">
	.st0{fill:url(#SVGID_1_);}
</style>
<g>
	<g>
		<linearGradient id="SVGID_1_" gradientUnits="userSpaceOnUse" x1="1358.4458" y1="2325.8845" x2="1358.4458" y2="-2.1229">
			<stop  offset="0" style="stop-color:#FFFFFF;stop-opacity:0"/>
			<stop  offset="0.024" style="stop-color:#F2F9FB;stop-opacity:3.595385e-03"/>
			<stop  offset="0.1375" style="stop-color:#BADFEA;stop-opacity:0.0206"/>
			<stop  offset="0.2546" style="stop-color:#88C9DB;stop-opacity:0.0382"/>
			<stop  offset="0.3727" style="stop-color:#5FB5CE;stop-opacity:0.0559"/>
			<stop  offset="0.492" style="stop-color:#3CA6C3;stop-opacity:0.0738"/>
			<stop  offset="0.613" style="stop-color:#229ABB;stop-opacity:0.092"/>
			<stop  offset="0.7363" style="stop-color:#0F91B6;stop-opacity:0.1105"/>
			<stop  offset="0.8634" style="stop-color:#048CB2;stop-opacity:0.1295"/>
			<stop  offset="1" style="stop-color:#008AB1;stop-opacity:0.15"/>
		</linearGradient>
		<path class="st0" d="M576.77,2208.89c-10.95-16.02-26.91-17.92-42.31-2.92l-13,12.68c-15.37,15-17.22,34.43-6.37,50.35
			l29.82,43.78c10.96,16.03,27.02,17.81,42.42,2.81l13-12.68c15.4-15,17.12-34.32,6.27-50.23L576.77,2208.89z M594.44,2294.37
			l-13,12.68c-9.05,8.83-20.32,7.67-27.44-3.05l-29.84-43.86c-7.11-10.71-5.93-24,3.13-32.83l13-12.68
			c9.06-8.82,20.33-7.66,27.45,3.05l29.83,43.86C604.69,2272.26,603.5,2285.55,594.44,2294.37z M604.71,2144.19
			c-0.87-1.38-1.87-1.48-3-0.38l-4.55,4.37c-1.25,1.22-1.72,3-2.65,5.89l-10.15,32c-0.35,1.22-0.14,2.12,0.75,2.58l4.43,2.29
			c1.56,0.92,2.01,0.26,2.71-1.52l9.18-26.6l0.57-0.56l54.13,79.68c0.88,1.35,1.88,1.48,3.13,0.26l5.66-5.51
			c1.04-0.93,1.16-2.51,0.27-3.58L604.71,2144.19z M704.95,2084.08c-10.96-16.03-26.91-17.92-42.31-2.92l-13,12.68
			c-15.38,15-17.22,34.43-6.38,50.34l29.81,43.79c10.95,16.02,27.02,17.81,42.42,2.81l13-12.69c15.4-14.99,17.11-34.31,6.27-50.23
			L704.95,2084.08z M722.57,2169.43l-13,12.68c-9.06,8.87-20.33,7.71-27.44-3l-29.81-43.79c-7.12-10.72-5.93-24.01,3.13-32.83
			l13-12.69c9.06-8.82,20.33-7.66,27.44,3.06l29.81,43.74C732.82,2147.31,731.63,2160.6,722.57,2169.43z M732.86,2019.38
			c-0.86-1.38-1.87-1.48-3-0.38l-4.54,4.37c-1.24,1.22-1.71,3-2.65,5.89l-10.15,32c-0.35,1.22-0.14,2.12,0.75,2.58l4.44,2.3
			c1.55,0.91,2.01,0.25,2.7-1.53l9.19-26.6l0.56-0.55l54.13,79.67c0.87,1.35,1.88,1.48,3.12,0.26l5.66-5.51
			c1.04-0.93,1.16-2.51,0.27-3.58L732.86,2019.38z M833.19,1959.22c-10.96-16.03-26.91-17.92-42.31-2.92l-13,12.68
			c-15.37,15-17.22,34.43-6.37,50.34l29.8,43.79c10.96,16.03,27.03,17.81,42.42,2.81l13-12.68c15.4-15,17.12-34.32,6.27-50.24
			L833.19,1959.22z M850.82,2044.62l-13,12.68c-9.06,8.87-20.33,7.72-27.45-3l-29.8-43.79c-7.12-10.72-5.94-24.01,3.12-32.83
			l13-12.68c9.06-8.88,20.33-7.72,27.45,3l29.8,43.79C861.06,2022.51,859.87,2035.8,850.82,2044.62z M914.11,1880.37
			c-10.96-16.02-26.91-17.91-42.31-2.91l-13,12.68c-15.38,15-17.22,34.43-6.38,50.34l29.81,43.79
			c10.95,16.02,27.02,17.81,42.42,2.81l13-12.69c15.4-15,17.11-34.32,6.27-50.23L914.11,1880.37z M931.73,1965.77l-13,12.69
			c-9.06,8.82-20.33,7.66-27.45-3.06l-29.8-43.78c-7.12-10.72-5.93-24.01,3.13-32.83l13-12.69c9.06-8.82,20.33-7.66,27.44,3.06
			l29.81,43.78C941.98,1943.66,940.79,1956.95,931.73,1965.77z M942,1815.68c-0.86-1.38-1.86-1.48-3-0.38l-4.54,4.37
			c-1.24,1.22-1.71,3-2.65,5.89l-10.15,32c-0.35,1.22-0.14,2.12,0.75,2.58l4.44,2.29c1.55,0.92,2.01,0.26,2.7-1.52l9.19-26.6
			l0.56-0.56l54.13,79.68c0.87,1.35,1.88,1.47,3.12,0.26l5.66-5.51c1.03-0.93,1.16-2.5,0.28-3.58L942,1815.68z M1042.3,1755.54
			c-10.96-16.02-26.91-17.91-42.31-2.91l-13,12.68c-15.38,15-17.23,34.43-6.38,50.34l29.8,43.79c10.96,16.02,27.03,17.81,42.42,2.81
			l13-12.69c15.39-15,17.11-34.32,6.26-50.23L1042.3,1755.54z M1059.91,1840.94l-13,12.69c-9.06,8.82-20.33,7.66-27.45-3.06
			l-29.8-43.78c-7.12-10.72-5.94-24.01,3.12-32.83l13-12.69c9.06-8.82,20.33-7.66,27.45,3.06l29.8,43.78
			C1070.15,1818.83,1068.97,1832.12,1059.91,1840.94z M1123.26,1676.69c-10.96-16.02-26.92-17.92-42.32-2.92l-13,12.68
			c-15.37,15.01-17.22,34.44-6.37,50.35l29.8,43.78c10.96,16.03,27.02,17.81,42.42,2.81l13-12.68c15.4-15,17.12-34.32,6.27-50.23
			L1123.26,1676.69z M1140.87,1762.04l-13,12.68c-9.05,8.88-20.32,7.72-27.44-3l-29.8-43.79c-7.12-10.71-5.94-24,3.12-32.83
			l13-12.68c9.06-8.82,20.33-7.66,27.45,3.06l29.79,43.73C1151.11,1739.93,1149.87,1753.22,1140.87,1762.04z M1151.17,1611.99
			c-0.86-1.38-1.87-1.48-3-0.38l-4.54,4.37c-1.25,1.22-1.72,3-2.65,5.89l-10.15,32c-0.35,1.22-0.14,2.12,0.75,2.58l4.43,2.29
			c1.56,0.92,2.01,0.26,2.71-1.52l9.18-26.6l0.57-0.56l54.12,79.68c0.88,1.35,1.88,1.48,3.13,0.26l5.66-5.51
			c1.04-0.93,1.16-2.51,0.27-3.58L1151.17,1611.99z M1251.43,1551.87c-10.96-16.02-26.91-17.92-42.31-2.92l-13,12.68
			c-15.38,15-17.23,34.43-6.38,50.35l29.8,43.78c10.96,16.03,27.03,17.81,42.42,2.81l13-12.68c15.39-15,17.11-34.32,6.26-50.23
			L1251.43,1551.87z M1269.04,1637.22l-13,12.68c-9.06,8.88-20.33,7.72-27.45-3l-29.8-43.79c-7.12-10.71-5.94-24,3.12-32.83
			l13-12.68c9.06-8.82,20.33-7.66,27.45,3.06l29.8,43.73C1279.28,1615.11,1278.1,1628.4,1269.04,1637.22z M1332.38,1473.03
			c-10.96-16.03-26.91-17.92-42.31-2.92l-13,12.68c-15.38,15-17.23,34.43-6.38,50.34l29.8,43.79c10.96,16.02,27.03,17.81,42.42,2.81
			l13-12.69c15.4-14.99,17.12-34.31,6.27-50.23L1332.38,1473.03z M1350,1558.43l-13,12.68c-9.06,8.82-20.33,7.66-27.45-3.05
			l-29.8-43.79c-7.12-10.72-5.94-24.01,3.12-32.83l13-12.69c9.06-8.82,20.33-7.66,27.45,3.06l29.8,43.79
			C1360.24,1536.31,1359,1549.6,1350,1558.43z M1413.38,1394.14c-10.96-16.02-26.92-17.92-42.32-2.92l-13,12.69
			c-15.37,15-17.22,34.43-6.37,50.34l29.8,43.78c10.96,16.03,27.02,17.81,42.42,2.81l13-12.68c15.4-15,17.12-34.32,6.27-50.23
			L1413.38,1394.14z M1430.99,1479.49l-13,12.68c-9.05,8.88-20.32,7.72-27.44-3l-29.8-43.78c-7.12-10.72-5.94-24.01,3.12-32.84
			l13-12.68c9.06-8.82,20.33-7.66,27.45,3.06l29.79,43.73C1441.23,1457.38,1439.99,1470.67,1430.99,1479.49z M1494.3,1315.32
			c-10.95-16.02-26.91-17.91-42.31-2.91l-13,12.68c-15.37,15-17.22,34.43-6.37,50.34l29.8,43.78c10.95,16.03,27.02,17.81,42.42,2.81
			l13-12.68c15.4-15,17.11-34.32,6.27-50.23L1494.3,1315.32z M1511.92,1400.72l-13,12.69c-9.06,8.82-20.32,7.66-27.44-3.06
			l-29.81-43.78c-7.11-10.72-5.93-24.01,3.13-32.83l13-12.69c9.06-8.82,20.33-7.66,27.45,3.06l29.8,43.78
			C1522.17,1378.61,1520.98,1391.9,1511.92,1400.72z M1575.29,1236.45c-10.96-16.03-26.92-17.92-42.31-2.92l-13,12.68
			c-15.37,15-17.22,34.43-6.37,50.34l29.8,43.79c10.96,16.02,27.02,17.81,42.42,2.81l13-12.69c15.4-14.99,17.12-34.31,6.27-50.23
			L1575.29,1236.45z M1592.92,1321.8l-13,12.68c-9.06,8.87-20.33,7.71-27.45-3l-29.8-43.79c-7.12-10.72-5.94-24.01,3.12-32.83
			l13-12.69c9.06-8.82,20.33-7.66,27.45,3.06l29.8,43.74C1603.16,1299.68,1601.92,1312.97,1592.92,1321.8z M1603.2,1171.76
			c-0.87-1.35-1.87-1.48-3-0.38l-4.54,4.37c-1.25,1.22-1.72,3-2.65,5.89l-10.15,32c-0.36,1.22-0.15,2.12,0.74,2.58l4.44,2.29
			c1.55,0.92,2.01,0.26,2.7-1.52l9.19-26.6l0.57-0.55l54.12,79.67c0.88,1.35,1.88,1.48,3.13,0.26l5.66-5.51
			c1.04-0.93,1.16-2.51,0.27-3.58L1603.2,1171.76z M1703.45,1111.64c-10.96-16.03-26.91-17.92-42.31-2.92l-13,12.68
			c-15.38,15-17.22,34.43-6.38,50.34l29.81,43.79c10.95,16.02,27.02,17.81,42.42,2.81l13-12.69c15.4-14.99,17.11-34.32,6.26-50.23
			L1703.45,1111.64z M1721.07,1197.04l-13,12.68c-9.06,8.82-20.33,7.66-27.45-3.06l-29.8-43.78c-7.12-10.72-5.93-24.01,3.13-32.83
			l13-12.69c9.05-8.82,20.32-7.66,27.44,3.06l29.81,43.79C1731.31,1174.92,1730.13,1188.21,1721.07,1197.04z M1731.37,1046.93
			c-0.87-1.37-1.87-1.48-3-0.37l-4.53,4.35c-1.25,1.21-1.72,2.99-2.65,5.89l-10.15,32c-0.36,1.23-0.15,2.12,0.74,2.58l4.44,2.3
			c1.55,0.91,2.01,0.25,2.7-1.53l9.19-26.6l0.57-0.55l54.11,79.68c0.88,1.35,1.88,1.48,3.13,0.27l5.66-5.52
			c1.04-0.92,1.15-2.5,0.27-3.57L1731.37,1046.93z M1831.64,986.79c-10.96-16.03-26.92-17.92-42.31-2.92l-13,12.68
			c-15.37,15-17.22,34.43-6.37,50.34l29.8,43.79c10.96,16.02,27.03,17.81,42.42,2.81l13-12.69c15.4-14.99,17.12-34.32,6.27-50.23
			L1831.64,986.79z M1849.27,1072.19l-13,12.68c-9.06,8.82-20.33,7.66-27.45-3.06l-29.8-43.78c-7.12-10.72-5.94-24.01,3.12-32.83
			l13-12.69c9.06-8.82,20.33-7.66,27.45,3.06l29.8,43.79C1859.51,1050.07,1858.27,1063.36,1849.27,1072.19z M1912.59,907.9
			c-10.96-16.03-26.92-17.92-42.32-2.92l-13,12.68c-15.37,15-17.22,34.43-6.37,50.34l29.82,43.83
			c10.96,16.03,27.02,17.81,42.42,2.81l13-12.68c15.4-15,17.12-34.32,6.27-50.23L1912.59,907.9z M1930.23,993.35l-13,12.68
			c-9.06,8.88-20.33,7.72-27.45-3l-29.8-43.79c-7.12-10.72-5.94-24.01,3.12-32.83l13-12.68c9.06-8.87,20.33-7.72,27.45,3l29.8,43.79
			C1940.47,971.24,1939.23,984.53,1930.23,993.35z M1940.5,843.25c-0.86-1.37-1.87-1.47-3-0.37l-4.52,4.36
			c-1.24,1.21-1.72,3-2.65,5.89l-10.15,32c-0.35,1.23-0.14,2.13,0.75,2.59l4.44,2.29c1.55,0.92,2,0.25,2.7-1.53l9.19-26.6l0.56-0.55
			l54.13,79.67c0.87,1.36,1.88,1.48,3.12,0.27l5.66-5.52c1.04-0.92,1.15-2.5,0.27-3.57L1940.5,843.25z M2040.79,783.1
			c-10.96-16.02-26.91-17.92-42.31-2.92l-13,12.68c-15.38,15-17.23,34.43-6.38,50.35l29.8,43.78c10.96,16.03,27.03,17.81,42.43,2.81
			l13-12.68c15.4-15,17.11-34.32,6.26-50.23L2040.79,783.1z M2058.41,868.56l-13,12.68c-9.06,8.83-20.33,7.67-27.45-3.05
			l-29.8-43.79c-7.12-10.71-5.94-24,3.12-32.83l13-12.68c9.06-8.87,20.33-7.71,27.45,3l29.8,43.84
			C2068.65,846.45,2067.47,859.74,2058.41,868.56z M2121.69,704.25c-10.96-16.03-26.91-17.92-42.31-2.92l-13,12.68
			c-15.38,15-17.22,34.43-6.38,50.35l29.87,43.74c10.95,16.03,27.02,17.81,42.42,2.81l13-12.68c15.4-15,17.11-34.32,6.26-50.23
			L2121.69,704.25z M2139.37,789.57l-13,12.68c-9.06,8.87-20.33,7.72-27.45-3l-29.8-43.79c-7.12-10.72-5.93-24.01,3.13-32.83
			l13-12.68c9.06-8.82,20.32-7.67,27.44,3.05l29.81,43.74C2149.61,767.46,2148.43,780.75,2139.37,789.57z M2149.66,639.55
			c-0.86-1.37-1.87-1.48-3-0.37l-4.5,4.41c-1.24,1.21-1.71,2.99-2.65,5.89l-10.15,31.95c-0.35,1.23-0.14,2.12,0.75,2.58l4.44,2.3
			c1.55,0.91,2,0.25,2.7-1.53l9.19-26.6l0.56-0.55l54.09,79.67c0.87,1.35,1.88,1.48,3.12,0.27l5.66-5.52
			c1.04-0.92,1.15-2.5,0.27-3.57L2149.66,639.55z M2249.91,579.43c-10.96-16.02-26.91-17.92-42.31-2.92l-13,12.69
			c-15.38,15-17.22,34.43-6.38,50.34l29.81,43.79c10.95,16.02,27.02,17.8,42.42,2.8l13-12.68c15.4-15,17.11-34.32,6.26-50.23
			L2249.91,579.43z M2267.53,664.83l-13,12.69c-9.06,8.82-20.33,7.66-27.45-3.06l-29.8-43.78c-7.12-10.72-5.93-24.01,3.13-32.83
			l13-12.69c9.06-8.82,20.33-7.66,27.44,3.06l29.81,43.78C2277.78,642.72,2276.59,656.01,2267.53,664.83z M2277.84,514.72
			c-0.86-1.38-1.87-1.48-3-0.38l-4.54,4.37c-1.24,1.21-1.71,3-2.65,5.89l-10.15,32c-0.35,1.22-0.14,2.12,0.75,2.58l4.44,2.29
			c1.55,0.92,2.01,0.25,2.7-1.53l9.19-26.59l0.56-0.56l54.13,79.68c0.87,1.35,1.88,1.47,3.12,0.26l5.66-5.51
			c1.04-0.93,1.16-2.51,0.27-3.58L2277.84,514.72z M2378.09,454.6c-10.95-16.03-26.91-17.92-42.31-2.92l-13,12.68
			c-15.37,15-17.22,34.43-6.37,50.34l29.8,43.79c10.96,16.02,27.02,17.81,42.42,2.81l13-12.68c15.4-15,17.11-34.32,6.27-50.24
			L2378.09,454.6z M2395.71,540l-13,12.68c-9.06,8.82-20.32,7.66-27.44-3.05l-29.81-43.79c-7.11-10.72-5.93-24.01,3.13-32.83
			l13-12.68c9.06-8.83,20.33-7.67,27.45,3.05l29.8,43.79C2405.96,517.89,2404.77,531.17,2395.71,540z M2459.07,375.74
			c-10.96-16.03-26.92-17.92-42.32-2.92l-13,12.68c-15.37,15-17.22,34.43-6.37,50.34l29.8,43.79c10.96,16.03,27.02,17.81,42.42,2.81
			l13-12.68c15.4-15,17.12-34.32,6.27-50.24L2459.07,375.74z M2476.68,461.14l-13,12.68c-9.05,8.82-20.32,7.67-27.44-3.05
			l-29.8-43.79c-7.12-10.72-5.94-24.01,3.12-32.83l13-12.68c9.06-8.83,20.33-7.67,27.45,3.05l29.79,43.79
			C2486.92,439.03,2485.68,452.32,2476.68,461.14z M2487,311.06c-0.86-1.38-1.87-1.48-3-0.38l-4.57,4.39
			c-1.25,1.22-1.72,3-2.65,5.89l-10.15,32c-0.35,1.22-0.14,2.12,0.74,2.58l4.44,2.29c1.56,0.92,2.01,0.26,2.71-1.52l9.18-26.6
			l0.57-0.55l54.12,79.67c0.88,1.35,1.88,1.48,3.13,0.26l5.66-5.51c1.04-0.93,1.16-2.51,0.27-3.58L2487,311.06z M2534.2,265.05
			c-0.87-1.35-1.87-1.48-3-0.38l-4.55,4.44c-1.25,1.21-1.72,2.99-2.65,5.89l-10.13,31.95c-0.36,1.23-0.14,2.12,0.74,2.58l4.44,2.3
			c1.55,0.91,2.01,0.25,2.71-1.53l9.18-26.6l0.57-0.55l54.12,79.67c0.88,1.35,1.88,1.48,3.13,0.27l5.66-5.52
			c1.04-0.92,1.15-2.5,0.27-3.57L2534.2,265.05z M2581.4,219.08c-0.86-1.38-1.86-1.48-3-0.38l-4.49,4.37
			c-1.24,1.22-1.71,3-2.64,5.89l-10.16,32c-0.35,1.22-0.14,2.12,0.75,2.58l4.44,2.29c1.55,0.92,2.01,0.25,2.7-1.53l9.15-26.59
			l0.56-0.56l54.13,79.68c0.87,1.35,1.88,1.47,3.12,0.26l5.66-5.51c1.03-0.93,1.16-2.5,0.28-3.58L2581.4,219.08z M2711.49,202.71
			l-29.8-43.82c-10.96-16.02-26.91-17.91-42.31-2.91l-13,12.68c-15.38,15-17.23,34.43-6.38,50.34l29.8,43.82
			c10.96,16.02,27.03,17.81,42.43,2.81l13-12.69C2720.63,237.94,2722.34,218.62,2711.49,202.71z M2699.31,244.32l-13,12.69
			c-9.06,8.82-20.33,7.66-27.45-3.06l-29.8-43.78c-7.12-10.72-5.88-24.01,3.12-32.83l13-12.69c9.06-8.82,20.33-7.66,27.45,3.06
			l29.8,43.78C2709.55,222.21,2708.37,235.5,2699.31,244.32z M405.5,2161.04c-10.95-16.03-26.91-17.92-42.31-2.92l-13,12.68
			c-15.37,15-17.22,34.43-6.37,50.34l29.8,43.79c10.96,16.03,27.02,17.81,42.42,2.81l13-12.68c15.4-15,17.11-34.32,6.27-50.23
			L405.5,2161.04z M423.12,2246.4l-13,12.68c-9.06,8.88-20.33,7.72-27.44-3l-29.81-43.79c-7.12-10.72-5.93-24.01,3.13-32.83
			l13-12.68c9.06-8.82,20.33-7.67,27.45,3.05l29.8,43.74C433.37,2224.29,432.18,2237.58,423.12,2246.4z M433.42,2096.38
			c-0.87-1.35-1.87-1.48-3-0.38l-4.54,4.37c-1.25,1.22-1.72,3-2.65,5.89l-10.15,32c-0.35,1.22-0.14,2.12,0.74,2.58l4.44,2.29
			c1.56,0.92,2.01,0.26,2.71-1.52l9.18-26.6l0.57-0.55l54.12,79.67c0.88,1.35,1.88,1.48,3.13,0.26l5.66-5.51
			c1.04-0.93,1.16-2.51,0.27-3.58L433.42,2096.38z M544.2,2142.92l13-12.68c15.4-15,17.11-34.32,6.26-50.24l-29.77-43.77
			c-10.96-16.03-26.91-17.92-42.31-2.92l-13,12.68c-15.38,15-17.23,34.43-6.38,50.34l29.77,43.78
			C512.73,2156.13,528.8,2157.92,544.2,2142.92z M510.84,2131.3l-29.8-43.79c-7.12-10.72-5.93-24.01,3.12-32.83l13-12.68
			c9.05-8.88,20.32-7.72,27.44,3l29.81,43.79c7.12,10.71,5.94,24-3.12,32.83l-13,12.68C529.23,2143.17,517.96,2142.01,510.84,2131.3
			z M542,2016l4.42,2.28c1.55,0.92,2,0.26,2.7-1.52l9.18-26.6l0.57-0.56l54.13,79.68c0.87,1.35,1.87,1.48,3.12,0.26l5.66-5.51
			c1.04-0.93,1.16-2.51,0.27-3.58l-60.48-88.92c-0.86-1.38-1.87-1.48-3-0.38l-4.52,4.38c-1.24,1.22-1.71,3-2.65,5.89l-10.15,32
			C540.9,2014.64,541.11,2015.54,542,2016z M672.39,2018.08l13-12.69c15.4-15,17.11-34.32,6.27-50.23l-29.81-43.78
			c-10.95-16.03-26.91-17.92-42.31-2.92l-13,12.68c-15.37,15-17.22,34.43-6.37,50.34l29.8,43.79
			C640.93,2031.29,656.99,2033.08,672.39,2018.08z M612.35,1929.79l13-12.69c9.06-8.82,20.33-7.66,27.45,3.06l29.77,43.83
			c7.12,10.71,5.93,24-3.13,32.82l-13,12.69c-9.06,8.82-20.33,7.66-27.44-3.06l-29.78-43.82
			C602.11,1951.9,603.29,1938.61,612.35,1929.79z M753.36,1939.22l13-12.68c15.4-15,17.11-34.32,6.26-50.23l-29.8-43.79
			c-10.96-16.02-26.91-17.91-42.31-2.91l-13,12.68c-15.38,15-17.23,34.43-6.38,50.34l29.8,43.79
			C721.89,1952.44,737.96,1954.22,753.36,1939.22z M693.31,1850.94l13-12.69c9.06-8.82,20.33-7.66,27.45,3.06l29.8,43.78
			c7.12,10.72,5.94,24.01-3.12,32.83l-13,12.69c-9.06,8.82-20.33,7.66-27.45-3.06l-29.8-43.78
			C683.07,1873.05,684.31,1859.76,693.31,1850.94z M825.28,1865.84l5.66-5.52c1.04-0.92,1.15-2.5,0.27-3.57l-60.48-88.93
			c-0.86-1.37-1.87-1.47-3-0.37l-4.57,4.36c-1.24,1.21-1.72,3-2.65,5.89l-10.15,32c-0.35,1.23-0.14,2.13,0.75,2.59l4.44,2.29
			c1.55,0.92,2,0.25,2.7-1.53l9.18-26.6l0.57-0.55l54.15,79.67C823.03,1866.93,824.03,1867.05,825.28,1865.84z M881.53,1814.39
			l13-12.68c15.4-15,17.12-34.32,6.27-50.23l-29.8-43.79c-10.96-16.02-26.92-17.92-42.32-2.92l-13,12.69
			c-15.37,15-17.22,34.43-6.37,50.34l29.8,43.78C850.07,1827.61,866.13,1829.39,881.53,1814.39z M821.49,1726.1l13-12.68
			c9.06-8.82,20.33-7.66,27.45,3.06l29.79,43.73c7.12,10.72,5.88,24.01-3.12,32.83l-13,12.68c-9.05,8.88-20.32,7.72-27.44-3
			l-29.8-43.79C811.25,1748.22,812.43,1734.93,821.49,1726.1z M962.5,1735.54l13-12.68c15.4-15,17.11-34.32,6.26-50.24l-29.8-43.78
			c-10.96-16.03-26.91-17.92-42.31-2.92l-13,12.68c-15.38,15-17.23,34.43-6.38,50.34l29.8,43.79
			C931.03,1748.75,947.1,1750.54,962.5,1735.54z M902.46,1647.25l13-12.68c9.05-8.83,20.32-7.67,27.44,3.05l29.82,43.74
			c7.11,10.71,5.93,24-3.13,32.83l-13,12.68c-9.06,8.87-20.33,7.72-27.45-3l-29.8-43.79
			C892.22,1669.36,893.46,1656.07,902.46,1647.25z M1034.43,1662.15l5.66-5.52c1.04-0.92,1.15-2.5,0.27-3.57l-60.48-88.93
			c-0.87-1.35-1.87-1.47-3-0.37l-4.54,4.36c-1.25,1.21-1.72,3-2.65,5.89l-10.16,32c-0.35,1.23-0.14,2.13,0.75,2.59l4.44,2.29
			c1.55,0.92,2.01,0.25,2.7-1.53l9.19-26.6l0.57-0.55l54.12,79.67C1032.18,1663.24,1033.18,1663.36,1034.43,1662.15z
			 M1090.66,1610.72l13-12.68c15.4-15,17.11-34.32,6.27-50.24l-29.81-43.78c-10.96-16.03-26.91-17.92-42.31-2.92l-13,12.68
			c-15.38,15-17.22,34.43-6.38,50.34l29.81,43.79C1059.19,1623.94,1075.26,1625.72,1090.66,1610.72z M1030.62,1522.48l13-12.68
			c9.06-8.88,20.33-7.72,27.45,3l29.8,43.84c7.12,10.72,5.93,24.01-3.13,32.83l-13,12.68c-9.06,8.82-20.33,7.67-27.44-3.05
			l-29.81-43.79C1020.37,1544.59,1021.56,1531.3,1030.62,1522.48z M1171.62,1531.91l13-12.68c15.4-15,17.11-34.32,6.27-50.23
			l-29.81-43.79c-10.96-16.02-26.91-17.92-42.31-2.92l-13,12.69c-15.38,15-17.22,34.43-6.38,50.34l29.81,43.78
			C1140.15,1545.13,1156.22,1546.91,1171.62,1531.91z M1111.56,1443.62l13-12.68c9.06-8.82,20.33-7.66,27.44,3.06l29.81,43.73
			c7.12,10.72,5.93,24.01-3.13,32.83l-13,12.68c-9.06,8.88-20.33,7.72-27.45-3l-29.8-43.79
			C1101.31,1465.74,1102.5,1452.45,1111.56,1443.62z M1252.62,1452.99l13-12.69c15.4-14.99,17.11-34.31,6.26-50.23l-29.8-43.78
			c-10.96-16.03-26.91-17.92-42.31-2.92l-13,12.68c-15.38,15-17.23,34.43-6.38,50.34l29.8,43.79
			C1221.15,1466.2,1237.22,1467.99,1252.62,1452.99z M1192.57,1364.7l13-12.69c9.06-8.82,20.33-7.66,27.45,3.06l29.8,43.79
			c7.12,10.71,5.94,24-3.12,32.83l-13,12.68c-9.06,8.82-20.33,7.66-27.45-3.05l-29.8-43.79
			C1182.33,1386.81,1183.51,1373.52,1192.57,1364.7z M1333.55,1374.17l13-12.68c15.4-15,17.11-34.32,6.26-50.23l-29.8-43.79
			c-10.96-16.03-26.91-17.92-42.31-2.92l-13,12.68c-15.38,15-17.23,34.43-6.38,50.34l29.8,43.79
			C1302.08,1387.39,1318.15,1389.17,1333.55,1374.17z M1273.51,1285.94l13-12.68c9.05-8.87,20.32-7.72,27.44,3l29.82,43.79
			c7.11,10.72,5.93,24.01-3.13,32.83l-13,12.68c-9.06,8.88-20.33,7.72-27.45-3l-29.8-43.79
			C1263.27,1308.05,1264.51,1294.76,1273.51,1285.94z M1414.51,1295.32l13-12.68c15.4-15,17.11-34.32,6.26-50.23l-29.8-43.79
			c-10.96-16.03-26.91-17.92-42.31-2.92l-13,12.68c-15.38,15-17.23,34.43-6.38,50.34l29.8,43.79
			C1383.04,1308.54,1399.11,1310.32,1414.51,1295.32z M1354.47,1207.09l13-12.68c9.05-8.87,20.32-7.72,27.44,3l29.81,43.79
			c7.12,10.72,5.94,24.01-3.12,32.83l-13,12.68c-9.06,8.88-20.33,7.72-27.45-3l-29.8-43.79
			C1344.23,1229.2,1345.47,1215.91,1354.47,1207.09z M1486.45,1221.92l5.66-5.52c1.04-0.92,1.15-2.5,0.27-3.57l-60.48-88.93
			c-0.86-1.37-1.87-1.48-3-0.37l-4.53,4.38c-1.25,1.21-1.72,2.99-2.65,5.89l-10.15,32c-0.35,1.23-0.14,2.12,0.75,2.58l4.43,2.3
			c1.56,0.92,2.01,0.25,2.71-1.53l9.18-26.6l0.57-0.55l54.11,79.65C1484.2,1223.01,1485.2,1223.13,1486.45,1221.92z
			 M1542.73,1170.48l13-12.68c15.4-15,17.11-34.32,6.27-50.23l-29.81-43.79c-10.95-16.03-26.91-17.92-42.31-2.92l-13,12.68
			c-15.37,15-17.22,34.43-6.37,50.34l29.8,43.79C1511.26,1183.7,1527.33,1185.48,1542.73,1170.48z M1482.69,1082.25l13-12.68
			c9.06-8.87,20.33-7.72,27.45,3l29.8,43.84c7.12,10.72,5.93,24.01-3.13,32.83l-13,12.68c-9.06,8.83-20.33,7.67-27.44-3.05
			l-29.81-43.79C1472.44,1104.36,1473.63,1091.07,1482.69,1082.25z M1614.62,1097.09l5.66-5.51c1.04-0.93,1.16-2.51,0.27-3.58
			l-60.48-88.92c-0.86-1.38-1.87-1.48-3-0.38l-4.54,4.37c-1.24,1.22-1.72,3-2.65,5.89l-10.15,32c-0.35,1.22-0.14,2.12,0.75,2.58
			l4.44,2.29c1.55,0.92,2,0.26,2.7-1.53l9.18-26.59l0.57-0.56l54.12,79.68C1612.37,1098.18,1613.38,1098.3,1614.62,1097.09z
			 M1670.89,1045.63l13-12.68c15.4-15,17.11-34.32,6.26-50.23l-29.84-43.8C1649.35,922.89,1633.4,921,1618,936l-12.98,12.66
			c-15.38,15-17.23,34.43-6.38,50.34l29.83,43.82C1639.43,1058.85,1655.5,1060.63,1670.89,1045.63z M1610.84,957.4l13-12.68
			c9.06-8.87,20.33-7.72,27.45,3l29.8,43.79c7.12,10.72,5.94,24.01-3.12,32.83l-13,12.68c-9.06,8.88-20.33,7.72-27.45-3l-29.8-43.79
			C1600.6,979.51,1601.78,966.22,1610.84,957.4z M1751.85,966.78l13-12.68c15.39-15,17.11-34.32,6.26-50.23l-29.79-43.79
			c-10.96-16.02-26.91-17.91-42.31-2.91l-13,12.68c-15.38,15-17.23,34.43-6.38,50.34l29.8,43.78
			C1720.39,980,1736.46,981.78,1751.85,966.78z M1691.8,878.49l13-12.68c9.06-8.82,20.33-7.66,27.45,3.06l29.8,43.78
			c7.12,10.72,5.94,24.01-3.12,32.83l-13,12.69c-9.06,8.82-20.33,7.66-27.45-3.06l-29.8-43.78
			C1681.56,900.61,1682.74,887.32,1691.8,878.49z M1823.74,893.39l5.67-5.51c1.03-0.93,1.15-2.5,0.27-3.58l-60.48-88.92
			c-0.86-1.38-1.86-1.48-3-0.38l-4.54,4.37c-1.25,1.22-1.72,3-2.65,5.89l-10.16,32c-0.35,1.22-0.14,2.12,0.75,2.58l4.44,2.3
			c1.55,0.91,2.01,0.25,2.7-1.53l9.19-26.6l0.57-0.55l54.12,79.67C1821.5,894.48,1822.5,894.61,1823.74,893.39z M1880.03,841.91
			l13-12.68c15.4-15,17.11-34.32,6.27-50.23l-29.81-43.79c-10.96-16.02-26.91-17.92-42.31-2.92l-13,12.69
			c-15.38,15-17.22,34.43-6.38,50.34l29.81,43.78C1848.56,855.13,1864.63,856.91,1880.03,841.91z M1819.99,753.63l13-12.69
			c9.06-8.82,20.33-7.66,27.45,3.06l29.8,43.78c7.12,10.72,5.93,24.01-3.13,32.83l-13,12.69c-9.06,8.82-20.33,7.66-27.44-3.06
			l-29.81-43.78C1809.74,775.74,1810.93,762.45,1819.99,753.63z M1960.99,763.09l13-12.68c15.4-15,17.11-34.32,6.27-50.23
			l-29.81-43.79c-10.95-16.02-26.91-17.92-42.31-2.92l-13,12.69c-15.37,14.99-17.22,34.43-6.37,50.34l29.8,43.78
			C1929.52,776.31,1945.59,778.09,1960.99,763.09z M1900.95,674.8l13-12.68c9.06-8.82,20.33-7.66,27.45,3.06l29.8,43.78
			c7.12,10.72,5.93,24.01-3.13,32.83l-13,12.69c-9.06,8.82-20.32,7.66-27.44-3.06l-29.81-43.78
			C1890.71,696.92,1891.89,683.63,1900.95,674.8z M2032.9,689.71l5.67-5.51c1.03-0.93,1.15-2.5,0.27-3.58l-60.48-88.93
			c-0.86-1.37-1.86-1.47-3-0.37l-4.54,4.36c-1.25,1.21-1.72,3-2.65,5.89l-10.16,32c-0.35,1.23-0.14,2.13,0.75,2.59l4.44,2.29
			c1.55,0.92,2.01,0.25,2.7-1.53l9.19-26.6l0.56-0.55l54.13,79.67C2030.65,690.8,2031.66,690.92,2032.9,689.71z M2089.18,638.25
			l13-12.68c15.4-15,17.11-34.32,6.26-50.24l-29.8-43.78c-10.96-16.03-26.91-17.92-42.31-2.92l-13,12.68
			c-15.38,15-17.22,34.43-6.38,50.34l29.81,43.79C2057.71,651.46,2073.78,653.25,2089.18,638.25z M2029.14,550.01l13-12.68
			c9.06-8.88,20.33-7.72,27.44,3l29.81,43.79c7.12,10.72,5.93,24-3.13,32.83l-13,12.68c-9.06,8.87-20.33,7.71-27.45-3l-29.8-43.79
			C2018.89,572.12,2020.08,558.83,2029.14,550.01z M2161.06,564.87l5.67-5.51c1.03-0.93,1.15-2.5,0.27-3.58l-60.46-88.92
			c-0.86-1.38-1.86-1.48-3-0.38l-4.56,4.37c-1.25,1.22-1.72,3-2.65,5.89l-10.16,32c-0.35,1.22-0.14,2.12,0.75,2.58l4.44,2.3
			c1.55,0.91,2.01,0.25,2.7-1.53l9.19-26.6l0.56-0.55l54.13,79.67C2158.81,565.96,2159.82,566.09,2161.06,564.87z M2217.36,513.41
			l13-12.68c15.4-15,17.11-34.32,6.27-50.23l-29.81-43.79c-10.96-16.02-26.91-17.92-42.31-2.92l-13,12.69
			c-15.38,15-17.22,34.43-6.38,50.34l29.81,43.78C2185.89,526.63,2201.96,528.41,2217.36,513.41z M2157.32,425.13l13-12.69
			c9.06-8.82,20.33-7.66,27.44,3.06l29.81,43.78c7.12,10.72,5.93,24.01-3.13,32.83l-13,12.69c-9.06,8.82-20.33,7.66-27.45-3.06
			l-29.8-43.78C2147.07,447.24,2148.26,433.95,2157.32,425.13z M2298.3,434.58l13-12.68c15.4-15,17.12-34.32,6.27-50.23
			l-29.82-43.78c-10.96-16.02-26.91-17.92-42.31-2.92l-13,12.68c-15.38,15-17.23,34.43-6.38,50.35l29.82,43.77
			C2266.84,447.8,2282.91,449.58,2298.3,434.58z M2238.26,346.3l13-12.68c9.06-8.82,20.33-7.66,27.45,3.05l29.8,43.79
			c7.12,10.72,5.93,24.01-3.12,32.83l-13,12.68c-9.06,8.83-20.33,7.67-27.45-3.05l-29.8-43.79
			C2228.02,368.41,2229.2,355.12,2238.26,346.3z M2370.22,361.19l5.67-5.52c1.03-0.93,1.15-2.5,0.27-3.57l-60.48-88.93
			c-0.86-1.37-1.86-1.47-3-0.37l-4.52,4.41c-1.25,1.21-1.72,3-2.65,5.89l-10.16,31.95c-0.35,1.23-0.14,2.13,0.75,2.59l4.44,2.29
			c1.55,0.92,2.01,0.25,2.7-1.53l9.19-26.6l0.57-0.55l54.1,79.67C2367.98,362.28,2368.98,362.4,2370.22,361.19z M2417.45,315.21
			l5.66-5.52c1.04-0.92,1.15-2.5,0.27-3.57l-60.48-88.93c-0.87-1.37-1.87-1.48-3-0.37l-4.54,4.41c-1.25,1.21-1.72,2.99-2.65,5.89
			l-10.15,31.95c-0.35,1.23-0.14,2.12,0.74,2.58l4.44,2.3c1.55,0.92,2.01,0.25,2.71-1.53l9.18-26.6l0.57-0.55l54.12,79.67
			C2415.2,316.29,2416.2,316.42,2417.45,315.21z M2390.5,215.68l4.44,2.29c1.55,0.92,2.01,0.26,2.7-1.52l9.19-26.6l0.56-0.55
			l54.13,79.67c0.87,1.35,1.88,1.47,3.12,0.26l5.67-5.51c1.03-0.93,1.15-2.5,0.27-3.58l-60.48-88.92c-0.86-1.38-1.86-1.48-3-0.38
			l-4.54,4.37c-1.25,1.22-1.72,3-2.65,5.89l-10.16,32C2389.4,214.32,2389.61,215.22,2390.5,215.68z M2478.5,214.96
			c10.96,16.02,27.03,17.81,42.43,2.81l13-12.69c15.4-15,17.11-34.32,6.26-50.23l-29.8-43.78c-10.96-16.03-26.91-17.92-42.31-2.92
			l-13,12.68c-15.38,15-17.23,34.43-6.38,50.34L2478.5,214.96z M2460.88,129.48l13-12.69c9.06-8.82,20.33-7.66,27.45,3.06
			l29.8,43.78c7.12,10.72,5.94,24.01-3.12,32.84l-13,12.68c-9.06,8.82-20.33,7.66-27.45-3.06l-29.8-43.78
			C2450.64,151.59,2451.82,138.3,2460.88,129.48z M236.77,2110.75c-10.96-16.03-26.91-17.92-42.31-2.92l-13,12.68
			c-15.38,15-17.23,34.43-6.38,50.34l29.8,43.79c10.96,16.03,27.03,17.81,42.43,2.81l13-12.68c15.39-15,17.11-34.32,6.26-50.24
			L236.77,2110.75z M254.39,2196.1l-13,12.68c-9.06,8.87-20.33,7.72-27.45-3l-29.8-43.79c-7.12-10.72-5.94-24.01,3.12-32.83
			l13-12.68c9.06-8.83,20.33-7.67,27.45,3.05l29.8,43.74C264.63,2173.99,263.45,2187.28,254.39,2196.1z M264.68,2046.05
			c-0.86-1.38-1.86-1.48-3-0.38l-4.52,4.37c-1.24,1.21-1.71,3-2.65,5.89l-10.15,32c-0.35,1.22-0.14,2.12,0.75,2.58l4.44,2.29
			c1.55,0.92,2.01,0.25,2.7-1.53l9.19-26.6l0.56-0.55l54.12,79.7c0.87,1.36,1.88,1.48,3.12,0.27l5.66-5.51
			c1.03-0.93,1.16-2.5,0.28-3.58L264.68,2046.05z M375.46,2092.64l13-12.69c15.4-15,17.12-34.32,6.27-50.23l-29.82-43.83
			c-10.96-16.02-26.91-17.91-42.31-2.91l-13,12.68c-15.38,15-17.23,34.43-6.38,50.34l29.82,43.83
			C344,2105.85,360.06,2107.64,375.46,2092.64z M312.3,2037.18c-7.12-10.72-5.94-24.01,3.12-32.83l13-12.69
			c9.06-8.82,20.33-7.66,27.45,3.06l29.8,43.78c7.12,10.72,5.93,24.01-3.12,32.83l-13,12.69c-9.06,8.82-20.33,7.66-27.45-3.06
			L312.3,2037.18z M389.84,1920.86l-4.54,4.37c-1.25,1.22-1.72,3-2.65,5.89l-10.15,32c-0.36,1.22-0.14,2.12,0.74,2.58l4.44,2.29
			c1.55,0.92,2.01,0.26,2.7-1.52l9.19-26.6l0.57-0.56l54.12,79.68c0.88,1.35,1.88,1.48,3.13,0.26l5.66-5.51
			c1.03-0.93,1.15-2.51,0.27-3.58l-60.48-88.92C391.97,1919.86,390.97,1919.76,389.84,1920.86z M503.66,1967.79l13-12.69
			c15.4-14.99,17.11-34.32,6.26-50.23l-29.8-43.78c-10.96-16.03-26.91-17.92-42.31-2.92l-13,12.68c-15.38,15-17.23,34.43-6.38,50.34
			l29.8,43.79C472.19,1981,488.26,1982.79,503.66,1967.79z M443.61,1879.5l13-12.69c9.06-8.82,20.33-7.66,27.45,3.06l29.8,43.79
			c7.12,10.71,5.94,24-3.12,32.83l-13,12.68c-9.06,8.82-20.33,7.66-27.45-3.06l-29.8-43.78
			C433.37,1901.61,434.61,1888.32,443.61,1879.5z M584.62,1888.91l13-12.68c15.4-15,17.12-34.32,6.27-50.23l-29.81-43.79
			c-10.96-16.02-26.92-17.92-42.31-2.92l-13,12.69c-15.37,15-17.22,34.43-6.37,50.34l29.8,43.78
			C553.16,1902.13,569.22,1903.91,584.62,1888.91z M524.58,1800.62l13-12.68c9.06-8.82,20.33-7.66,27.45,3.06l29.79,43.78
			c7.12,10.72,5.88,24.01-3.12,32.83l-13,12.69c-9.05,8.82-20.32,7.66-27.44-3.06l-29.8-43.78
			C514.34,1822.74,515.52,1809.45,524.58,1800.62z M599,1717.16l-4.54,4.36c-1.25,1.21-1.72,3-2.65,5.89l-10.16,32
			c-0.35,1.23-0.14,2.13,0.75,2.59l4.44,2.29c1.55,0.92,2.01,0.25,2.7-1.53l9.19-26.6l0.57-0.55l54.12,79.67
			c0.88,1.36,1.88,1.48,3.13,0.27l5.66-5.52c1.03-0.93,1.15-2.5,0.27-3.57L602,1717.54C601.13,1716.16,600.13,1716.06,599,1717.16z
			 M659.95,1654.49l-13,12.68c-15.38,15-17.23,34.43-6.38,50.34l29.8,43.79c10.96,16.02,27.03,17.81,42.43,2.81l13-12.69
			c15.4-15,17.11-34.32,6.26-50.23l-29.8-43.79C691.3,1641.38,675.35,1639.49,659.95,1654.49z M719.89,1742.8l-13,12.69
			c-9.06,8.82-20.33,7.66-27.45-3.06l-29.8-43.78c-7.12-10.72-5.93-24.01,3.12-32.83l13-12.69c9.05-8.82,20.32-7.66,27.44,3.06
			l29.81,43.78C730.13,1720.69,728.95,1733.98,719.89,1742.8z M740.88,1575.63l-13,12.68c-15.37,15-17.22,34.43-6.37,50.34
			l29.8,43.79c10.96,16.03,27.02,17.81,42.42,2.81l13-12.68c15.4-15,17.12-34.32,6.27-50.23l-29.81-43.79
			C772.23,1562.52,756.28,1560.63,740.88,1575.63z M800.82,1664.01l-13,12.68c-9.06,8.83-20.33,7.67-27.45-3.05l-29.8-43.79
			c-7.12-10.72-5.94-24.01,3.12-32.83l13-12.68c9.06-8.87,20.33-7.72,27.45,3l29.8,43.84
			C811.06,1641.9,809.82,1655.19,800.82,1664.01z M808.14,1513.47l-4.54,4.37c-1.24,1.22-1.72,3-2.65,5.89l-10.15,32
			c-0.35,1.22-0.14,2.12,0.75,2.58l4.44,2.29c1.55,0.92,2,0.26,2.7-1.53l9.19-26.59l0.56-0.56l54.12,79.67
			c0.88,1.36,1.89,1.48,3.13,0.27l5.66-5.51c1.04-0.93,1.16-2.51,0.27-3.58l-60.48-88.92
			C810.28,1512.47,809.27,1512.37,808.14,1513.47z M869.09,1450.81l-13,12.69c-15.38,15-17.23,34.43-6.38,50.34l29.8,43.78
			c10.96,16.03,27.03,17.81,42.42,2.81l13-12.68c15.39-15,17.11-34.32,6.26-50.23l-29.79-43.79
			C900.44,1437.71,884.49,1435.81,869.09,1450.81z M929.01,1539.08l-13,12.68c-9.06,8.88-20.33,7.72-27.45-3l-29.8-43.79
			c-7.12-10.71-5.94-24,3.12-32.83l13-12.68c9.06-8.82,20.33-7.66,27.45,3.06l29.8,43.73
			C939.25,1516.97,938.07,1530.26,929.01,1539.08z M950.05,1371.98l-13,12.68c-15.38,15-17.23,34.43-6.38,50.34l29.82,43.75
			c10.96,16.03,27.03,17.81,42.42,2.81l13-12.68c15.4-15,17.12-34.32,6.27-50.24l-29.82-43.74
			C981.4,1358.87,965.45,1356.98,950.05,1371.98z M1010,1460.26l-13,12.68c-9.06,8.87-20.33,7.72-27.45-3l-29.8-43.79
			c-7.12-10.72-5.94-24.01,3.12-32.83l13-12.68c9.06-8.88,20.33-7.72,27.45,3l29.8,43.79C1020.24,1438.15,1019,1451.44,1010,1460.26
			z M1031.03,1293.08l-13,12.68c-15.37,15-17.22,34.44-6.37,50.35l29.8,43.78c10.96,16.03,27.02,17.81,42.42,2.81l13-12.68
			c15.4-15,17.11-34.32,6.27-50.23l-29.81-43.79C1062.39,1279.98,1046.43,1278.08,1031.03,1293.08z M1090.96,1381.35l-13,12.68
			c-9.05,8.88-20.32,7.72-27.44-3l-29.81-43.79c-7.11-10.71-5.93-24,3.13-32.83l13-12.68c9.06-8.82,20.33-7.66,27.45,3.06
			l29.8,43.73C1101.21,1359.24,1100.02,1372.53,1090.96,1381.35z M1111.96,1214.29l-13,12.69c-15.37,15-17.22,34.43-6.37,50.34
			l29.8,43.78c10.96,16.03,27.02,17.81,42.42,2.81l13-12.68c15.4-15,17.11-34.32,6.27-50.23l-29.81-43.79
			C1143.32,1201.19,1127.36,1199.29,1111.96,1214.29z M1171.89,1302.61l-13,12.69c-9.05,8.82-20.32,7.66-27.44-3.06l-29.81-43.78
			c-7.11-10.72-5.93-24.01,3.13-32.84l13-12.68c9.06-8.82,20.33-7.66,27.45,3.06l29.8,43.78
			C1182.14,1280.5,1180.95,1293.79,1171.89,1302.61z M1192.95,1135.39l-13,12.68c-15.37,15-17.22,34.43-6.37,50.34l29.8,43.79
			c10.96,16.02,27.03,17.81,42.42,2.81l13-12.68c15.4-15,17.12-34.32,6.27-50.24l-29.81-43.78
			C1224.3,1122.28,1208.34,1120.39,1192.95,1135.39z M1252.89,1223.66l-13,12.68c-9.06,8.87-20.33,7.72-27.45-3l-29.8-43.79
			c-7.12-10.72-5.94-24.01,3.12-32.83l13-12.68c9.06-8.83,20.33-7.67,27.45,3.05l29.8,43.74
			C1263.13,1201.54,1261.89,1214.83,1252.89,1223.66z M1260.16,1073.24l-4.54,4.37c-1.25,1.22-1.72,3-2.65,5.89l-10.16,32
			c-0.35,1.22-0.14,2.12,0.75,2.58l4.44,2.29c1.55,0.92,2.01,0.26,2.7-1.52l9.19-26.6l0.57-0.56l54.12,79.68
			c0.88,1.35,1.88,1.48,3.12,0.26l5.67-5.51c1.03-0.93,1.15-2.5,0.27-3.58l-60.48-88.92
			C1262.3,1072.24,1261.3,1072.14,1260.16,1073.24z M1321.11,1010.58l-13,12.68c-15.38,15-17.23,34.43-6.38,50.34l29.8,43.79
			c10.96,16.02,27.03,17.81,42.43,2.81l13-12.69c15.4-14.99,17.11-34.31,6.26-50.23l-29.8-43.78
			C1352.46,997.47,1336.51,995.58,1321.11,1010.58z M1381.05,1098.85l-13,12.68c-9.06,8.87-20.33,7.71-27.45-3l-29.8-43.79
			c-7.12-10.72-5.93-24.01,3.12-32.83l13-12.69c9.05-8.82,20.32-7.66,27.44,3.06l29.81,43.74
			C1391.29,1076.73,1390.11,1090.02,1381.05,1098.85z M1388.33,948.42l-4.54,4.41c-1.25,1.21-1.72,2.99-2.65,5.89l-10.16,31.95
			c-0.35,1.23-0.14,2.12,0.75,2.58l4.44,2.3c1.55,0.92,2.01,0.25,2.7-1.53l9.19-26.6l0.57-0.55l54.12,79.67
			c0.88,1.35,1.88,1.48,3.12,0.27l5.67-5.52c1.03-0.93,1.15-2.5,0.27-3.57l-60.48-88.93
			C1390.47,947.42,1389.47,947.31,1388.33,948.42z M1449.3,885.73l-13,12.68c-15.37,15-17.22,34.43-6.37,50.34l29.8,43.79
			c10.95,16.02,27.02,17.81,42.42,2.81l13-12.69c15.4-14.99,17.11-34.31,6.27-50.23l-29.81-43.78
			C1480.66,872.62,1464.7,870.73,1449.3,885.73z M1509.23,974l-13,12.68c-9.06,8.87-20.33,7.71-27.44-3l-29.81-43.79
			c-7.12-10.72-5.93-24.01,3.13-32.83l13-12.69c9.06-8.82,20.33-7.66,27.45,3.06l29.8,43.74
			C1519.48,951.88,1518.29,965.17,1509.23,974z M1530.26,806.88l-13,12.68c-15.38,15-17.22,34.43-6.38,50.35l29.81,43.78
			c10.95,16.03,27.02,17.81,42.42,2.81l13-12.68c15.4-15,17.11-34.32,6.27-50.23l-29.81-43.79
			C1561.61,793.78,1545.66,791.88,1530.26,806.88z M1590.19,895.21l-13,12.68c-9.06,8.88-20.33,7.72-27.44-3l-29.81-43.79
			c-7.12-10.71-5.93-24.01,3.13-32.83l13-12.68c9.06-8.87,20.33-7.72,27.44,3l29.81,43.79
			C1600.44,873.1,1599.25,886.39,1590.19,895.21z M1597.47,744.74l-4.49,4.32c-1.25,1.21-1.72,3-2.65,5.89l-10.15,32
			c-0.35,1.23-0.14,2.13,0.75,2.59l4.43,2.29c1.56,0.92,2.01,0.25,2.71-1.53l9.18-26.6l0.57-0.55l54.12,79.67
			c0.88,1.36,1.88,1.48,3.13,0.27l5.66-5.51c1.04-0.93,1.16-2.51,0.27-3.58l-60.53-88.88
			C1599.61,743.74,1598.6,743.64,1597.47,744.74z M1658.46,682.04l-13,12.69c-15.38,14.99-17.23,34.42-6.38,50.34l29.8,43.78
			c10.96,16.03,27.03,17.81,42.42,2.81l13-12.68c15.39-15,17.11-34.32,6.26-50.23l-29.79-43.79
			C1689.81,668.94,1673.86,667.04,1658.46,682.04z M1718.38,770.42l-13,12.68c-9.06,8.83-20.33,7.67-27.45-3.05l-29.8-43.79
			c-7.12-10.71-5.94-24,3.12-32.83l13-12.68c9.06-8.87,20.33-7.71,27.45,3l29.8,43.84C1728.62,748.31,1727.44,761.6,1718.38,770.42z
			 M1739.38,603.19l-13,12.69c-15.38,14.99-17.23,34.43-6.38,50.34l29.83,43.78c10.96,16.03,27.03,17.81,42.43,2.81l13-12.68
			c15.4-15,17.11-34.32,6.26-50.23l-29.83-43.79C1770.73,590.09,1754.78,588.19,1739.38,603.19z M1799.34,691.57l-13,12.69
			c-9.06,8.82-20.33,7.66-27.45-3.06l-29.8-43.79c-7.12-10.71-5.94-24,3.12-32.83l13-12.68c9.06-8.87,20.33-7.71,27.45,3l29.8,43.84
			C1809.58,669.46,1808.4,682.75,1799.34,691.57z M1806.63,541l-4.54,4.41c-1.25,1.21-1.72,2.99-2.65,5.89l-10.15,31.95
			c-0.35,1.23-0.14,2.12,0.75,2.58l4.43,2.3c1.56,0.92,2.01,0.25,2.71-1.53l9.18-26.6l0.57-0.55l54.12,79.67
			c0.88,1.36,1.88,1.48,3.13,0.27l5.66-5.52c1.04-0.92,1.15-2.5,0.27-3.57l-60.48-88.93C1808.77,540,1807.76,539.89,1806.63,541z
			 M1867.58,478.35l-13,12.68c-15.38,15-17.23,34.43-6.38,50.34l29.8,43.79c11,16.02,27,17.84,42.44,2.81l13-12.69
			c15.4-14.99,17.12-34.31,6.27-50.23l-29.82-43.78C1898.93,465.24,1882.98,463.35,1867.58,478.35z M1927.53,566.67l-13,12.68
			c-9.06,8.87-20.33,7.71-27.45-3l-29.8-43.79c-7.12-10.72-5.94-24.01,3.12-32.83l13-12.68c9.06-8.88,20.33-7.72,27.45,3l29.8,43.79
			C1937.77,544.55,1936.53,557.84,1927.53,566.67z M1934.81,416.2l-4.54,4.37c-1.25,1.22-1.72,3-2.65,5.89l-10.15,32
			c-0.35,1.22-0.14,2.12,0.75,2.58l4.43,2.3c1.56,0.91,2.01,0.25,2.71-1.53l9.18-26.6l0.57-0.55l54.12,79.67
			c0.88,1.35,1.88,1.48,3.13,0.26l5.66-5.51c1.04-0.93,1.16-2.51,0.27-3.58l-60.48-88.92C1936.95,415.2,1935.94,415.1,1934.81,416.2
			z M1995.78,353.51l-13,12.69c-15.38,14.99-17.23,34.42-6.38,50.34l29.8,43.78c10.96,16.03,27.03,17.81,42.42,2.81l13-12.68
			c15.4-15,17.12-34.32,6.27-50.23l-29.8-43.79C2027.13,340.41,2011.18,338.51,1995.78,353.51z M2055.71,441.84l-13,12.68
			c-9.06,8.83-20.33,7.67-27.45-3.05l-29.8-43.79c-7.12-10.71-5.94-24,3.12-32.83l13-12.68c9.06-8.82,20.33-7.66,27.45,3.05
			l29.8,43.79C2065.95,419.73,2064.76,433.02,2055.71,441.84z M2076.72,274.68l-13,12.69c-15.38,14.99-17.22,34.43-6.38,50.34
			l29.81,43.78c10.95,16.03,27.02,17.81,42.42,2.81l13-12.68c15.4-15,17.11-34.32,6.26-50.23l-29.8-43.79
			C2108.07,261.58,2092.12,259.68,2076.72,274.68z M2136.65,363l-13,12.69c-9.06,8.82-20.33,7.66-27.45-3.06l-29.8-43.79
			c-7.12-10.71-5.93-24,3.13-32.83l13-12.68c9.06-8.82,20.33-7.66,27.44,3.06l29.81,43.78C2146.9,340.89,2145.71,354.18,2136.65,363
			z M2144,212.52l-4.58,4.39c-1.24,1.21-1.72,3-2.65,5.89l-10.15,32c-0.35,1.23-0.14,2.13,0.75,2.59l4.44,2.29
			c1.55,0.92,2,0.25,2.7-1.53l9.18-26.6l0.57-0.55l54.16,79.64c0.88,1.36,1.89,1.48,3.13,0.27l5.66-5.52
			c1.04-0.92,1.15-2.5,0.27-3.57L2147,212.89C2146.14,211.52,2145.13,211.42,2144,212.52z M2179.02,213.68
			c1.55,0.92,2.01,0.25,2.7-1.53l9.19-26.6l0.56-0.55l54.12,79.66c0.87,1.36,1.88,1.48,3.12,0.27l5.66-5.52
			c1.03-0.92,1.16-2.5,0.28-3.57l-60.49-88.93c-0.86-1.35-1.86-1.47-3-0.37l-4.51,4.41c-1.24,1.21-1.71,3-2.65,5.89l-10.17,31.96
			c-0.35,1.23-0.14,2.13,0.75,2.59L2179.02,213.68z M2221.79,165.38l4.43,2.3c1.56,0.91,2.01,0.25,2.71-1.53l9.18-26.6l0.57-0.55
			l54.11,79.69c0.88,1.35,1.88,1.48,3.13,0.26l5.66-5.51c1.04-0.92,1.15-2.5,0.27-3.57l-60.48-88.93c-0.86-1.38-1.87-1.48-3-0.38
			l-4.53,4.4c-1.25,1.21-1.72,2.99-2.65,5.89l-10.15,31.95C2220.69,164.02,2220.9,164.92,2221.79,165.38z M2309.77,164.68
			c10.95,16.02,27.02,17.81,42.42,2.81l13-12.68c15.4-15,17.11-34.32,6.27-50.24l-29.78-43.78c-10.95-16.03-26.91-17.92-42.31-2.92
			l-13,12.68c-15.37,15-17.22,34.43-6.37,50.34L2309.77,164.68z M2292.15,79.25l13-12.68c9.06-8.88,20.33-7.72,27.45,3l29.8,43.79
			c7.12,10.72,5.93,24-3.13,32.83l-13,12.68c-9.06,8.87-20.32,7.71-27.44-3l-29.81-43.79
			C2281.91,101.36,2283.09,88.07,2292.15,79.25z M67.03,2061.02c-10.95-16.03-26.91-17.92-42.31-2.92l-13,12.68
			c-15.37,15-17.22,34.43-6.37,50.34l29.8,43.79c10.96,16.03,27.02,17.81,42.42,2.81l13-12.68c15.4-15,17.11-34.32,6.27-50.24
			L67.03,2061.02z M84.65,2146.37l-13,12.68c-9.06,8.87-20.33,7.72-27.44-3l-29.81-43.79c-7.12-10.72-5.93-24.01,3.13-32.83
			l13-12.68c9.06-8.83,20.33-7.67,27.45,3.05l29.8,43.74C94.9,2124.26,93.71,2137.55,84.65,2146.37z M95,1996.32
			c-0.86-1.38-1.87-1.48-3-0.38l-4.54,4.37c-1.25,1.21-1.72,3-2.65,5.89l-10.15,32c-0.35,1.22-0.14,2.12,0.75,2.58l4.43,2.29
			c1.56,0.92,2.01,0.25,2.71-1.53l9.18-26.6l0.57-0.55l54.12,79.67c0.88,1.36,1.88,1.48,3.13,0.27l5.66-5.51
			c1.04-0.93,1.16-2.51,0.27-3.58L95,1996.32z M205.74,2042.92l13-12.69c15.4-15,17.11-34.32,6.26-50.23l-29.8-43.79
			c-10.96-16.02-26.91-17.91-42.31-2.91l-13,12.68c-15.38,15-17.22,34.43-6.38,50.34l29.81,43.79
			C174.27,2056.13,190.34,2057.92,205.74,2042.92z M172.37,2031.24l-29.8-43.78c-7.12-10.72-5.93-24.01,3.13-32.83l13-12.69
			c9.05-8.82,20.32-7.66,27.44,3.06l29.81,43.78c7.11,10.72,5.93,24.01-3.13,32.83l-13,12.69
			C190.76,2043.12,179.49,2041.96,172.37,2031.24z M203.51,1915.97l4.44,2.29c1.55,0.92,2,0.26,2.7-1.53l9.18-26.6l0.57-0.55
			l54.13,79.67c0.87,1.36,1.88,1.48,3.12,0.27l5.66-5.51c1.04-0.93,1.16-2.51,0.27-3.58l-60.48-88.92c-0.86-1.38-1.87-1.48-3-0.38
			l-4.54,4.37c-1.24,1.21-1.71,3-2.65,5.89l-10.15,32C202.41,1914.61,202.62,1915.51,203.51,1915.97z M291.5,1915.25
			c10.96,16.02,27.02,17.81,42.42,2.81l13-12.69c15.4-15,17.12-34.32,6.27-50.23l-29.8-43.79c-10.96-16.02-26.91-17.91-42.31-2.91
			l-13,12.68c-15.38,15-17.23,34.43-6.38,50.34L291.5,1915.25z M273.88,1829.77l13-12.69c9.06-8.82,20.33-7.66,27.45,3.06
			l29.79,43.78c7.12,10.72,5.93,24.01-3.12,32.83l-13,12.69c-9.05,8.82-20.32,7.66-27.44-3.06l-29.8-43.78
			C263.64,1851.88,264.82,1838.59,273.88,1829.77z M372.47,1836.39c10.95,16.03,27.02,17.81,42.42,2.81l13-12.68
			c15.4-15,17.11-34.32,6.26-50.23l-29.8-43.79c-10.96-16.02-26.91-17.92-42.31-2.92l-13,12.68c-15.38,15-17.22,34.43-6.38,50.35
			L372.47,1836.39z M354.85,1750.97l13-12.68c9.05-8.87,20.32-7.71,27.44,3l29.81,43.79c7.11,10.72,5.93,24.01-3.13,32.83l-13,12.68
			c-9.06,8.88-20.33,7.72-27.45-3l-29.8-43.79C344.6,1773.09,345.79,1759.8,354.85,1750.97z M412.67,1712.26l4.44,2.3
			c1.55,0.92,2.01,0.25,2.7-1.53l9.19-26.6l0.56-0.55l54.13,79.67c0.87,1.36,1.88,1.48,3.12,0.27l5.66-5.52
			c1.03-0.92,1.16-2.5,0.28-3.57l-60.49-88.93c-0.86-1.37-1.86-1.48-3-0.37l-4.54,4.36c-1.24,1.21-1.71,2.99-2.65,5.89l-10.15,32
			C411.57,1710.91,411.78,1711.81,412.67,1712.26z M500.64,1711.56c10.96,16.03,27.02,17.81,42.42,2.81l13-12.68
			c15.4-15,17.12-34.32,6.27-50.23l-29.8-43.79c-10.96-16.02-26.91-17.92-42.31-2.92l-13,12.68c-15.38,15-17.23,34.43-6.38,50.35
			L500.64,1711.56z M483.02,1626.14l13-12.68c9.06-8.87,20.33-7.71,27.45,3l29.8,43.79c7.12,10.72,5.93,24.01-3.12,32.83l-13,12.68
			c-9.06,8.88-20.33,7.72-27.45-3l-29.8-43.79C472.78,1648.26,473.96,1634.97,483.02,1626.14z M581.61,1632.71
			c10.96,16.02,27.02,17.81,42.42,2.81l13-12.69c15.4-14.99,17.11-34.31,6.27-50.23l-29.81-43.78
			c-10.96-16.03-26.91-17.92-42.31-2.92l-13,12.68c-15.38,15-17.22,34.43-6.38,50.34L581.61,1632.71z M563.99,1547.23l13-12.69
			c9.06-8.82,20.33-7.66,27.45,3.06l29.8,43.74c7.12,10.71,5.93,24-3.13,32.83l-13,12.68c-9.06,8.87-20.33,7.71-27.44-3
			l-29.81-43.79C553.74,1569.34,554.93,1556.05,563.99,1547.23z M621.83,1508.53l4.43,2.3c1.56,0.92,2.01,0.25,2.71-1.53l9.18-26.6
			l0.57-0.55l54.12,79.67c0.88,1.36,1.88,1.48,3.13,0.27l5.66-5.52c1.04-0.92,1.15-2.5,0.27-3.57l-60.49-88.89
			c-0.86-1.37-1.87-1.48-3-0.37l-4.53,4.32c-1.25,1.21-1.72,2.99-2.65,5.89l-10.15,32C620.73,1507.18,620.94,1508.08,621.83,1508.53
			z M709.77,1507.89c10.96,16.03,27.02,17.81,42.42,2.81l13-12.68c15.4-15,17.12-34.32,6.27-50.24L741.69,1404
			c-10.96-16.03-26.91-17.92-42.31-2.92l-13,12.68c-15.38,15-17.23,34.43-6.38,50.34L709.77,1507.89z M692.15,1422.46l13-12.68
			c9.06-8.87,20.33-7.72,27.45,3l29.79,43.79c7.12,10.72,5.93,24.01-3.12,32.83l-13,12.68c-9.05,8.88-20.32,7.72-27.44-3
			l-29.8-43.79C681.91,1444.57,683.09,1431.28,692.15,1422.46z M790.73,1429.04c10.96,16.03,27.02,17.81,42.42,2.81l13-12.68
			c15.4-15,17.12-34.32,6.27-50.23l-29.8-43.79c-10.96-16.02-26.92-17.92-42.32-2.92l-13,12.68c-15.37,15-17.22,34.43-6.37,50.35
			L790.73,1429.04z M773.11,1343.62l13-12.68c9.06-8.87,20.33-7.71,27.45,3l29.79,43.79c7.12,10.72,5.88,24.01-3.12,32.83l-13,12.68
			c-9.05,8.88-20.32,7.72-27.44-3l-29.81-43.79C762.87,1365.74,764.05,1352.45,773.11,1343.62z M871.73,1350.16
			c10.95,16.02,27.02,17.81,42.42,2.81l13-12.68c15.4-15,17.11-34.32,6.27-50.24l-29.81-43.78c-10.95-16.03-26.91-17.92-42.31-2.92
			l-13,12.68c-15.37,15-17.22,34.43-6.37,50.34L871.73,1350.16z M854.11,1264.73l13-12.68c9.06-8.88,20.33-7.72,27.45,3l29.8,43.84
			c7.12,10.71,5.93,24-3.13,32.83l-13,12.68c-9.06,8.82-20.33,7.66-27.44-3.05l-29.81-43.79
			C843.86,1286.84,845.05,1273.55,854.11,1264.73z M952.66,1271.34c10.95,16.03,27.02,17.81,42.42,2.81l13-12.68
			c15.4-15,17.11-34.32,6.27-50.23l-29.81-43.79c-10.96-16.02-26.91-17.92-42.31-2.92l-13,12.68c-15.38,15-17.22,34.43-6.38,50.34
			L952.66,1271.34z M935.04,1185.92l13-12.68c9.06-8.87,20.33-7.72,27.45,3l29.8,43.79c7.12,10.72,5.93,24.01-3.13,32.83l-13,12.68
			c-9.06,8.88-20.33,7.72-27.44-3l-29.81-43.79C924.79,1208.04,925.98,1194.75,935.04,1185.92z M1033.62,1192.49
			c10.96,16.03,27.02,17.81,42.42,2.81l13-12.68c15.4-15,17.12-34.32,6.27-50.23l-29.81-43.79c-10.96-16.02-26.92-17.92-42.31-2.92
			l-13,12.68c-15.37,15-17.22,34.43-6.37,50.35L1033.62,1192.49z M1016,1107.02l13-12.68c9.06-8.82,20.33-7.67,27.45,3.05
			l29.8,43.74c7.12,10.72,5.88,24.01-3.12,32.83l-13,12.68c-9.06,8.88-20.33,7.72-27.45-3l-29.8-43.79
			C1005.76,1129.14,1006.94,1115.85,1016,1107.02z M1073.82,1068.38l4.44,2.3c1.55,0.92,2.01,0.25,2.7-1.53l9.19-26.6l0.56-0.55
			l54.11,79.66c0.88,1.36,1.88,1.48,3.12,0.27l5.67-5.52c1.03-0.93,1.14-2.5,0.27-3.57l-60.48-88.93c-0.86-1.37-1.86-1.48-3-0.37
			l-4.52,4.37c-1.25,1.21-1.72,2.99-2.65,5.89l-10.16,32C1072.72,1067.03,1072.93,1067.92,1073.82,1068.38z M1161.8,1067.65
			c10.96,16.03,27.03,17.81,42.43,2.81l13-12.68c15.4-15,17.11-34.32,6.26-50.23l-29.8-43.79c-10.96-16.02-26.91-17.92-42.31-2.92
			l-13,12.68c-15.38,15-17.23,34.43-6.38,50.35L1161.8,1067.65z M1144.19,982.18l13-12.68c9.05-8.82,20.32-7.67,27.44,3.05
			l29.82,43.79c7.11,10.72,5.93,24.01-3.13,32.83l-13,12.68c-9.06,8.83-20.33,7.67-27.45-3.05l-29.8-43.79
			C1133.95,1004.3,1135.14,991.01,1144.19,982.18z M1202.02,943.54l4.44,2.29c1.55,0.92,2.01,0.25,2.7-1.53l9.19-26.6l0.57-0.55
			l54.12,79.67c0.88,1.36,1.88,1.48,3.13,0.27l5.66-5.51c1.04-0.93,1.16-2.51,0.27-3.58l-60.49-88.94c-0.87-1.38-1.87-1.48-3-0.38
			l-4.53,4.39c-1.25,1.21-1.72,3-2.65,5.89l-10.16,32C1200.92,942.18,1201.13,943.08,1202.02,943.54z M1290,942.8
			c10.96,16.03,27.02,17.81,42.42,2.81l13-12.68c15.4-15,17.11-34.32,6.27-50.23l-29.83-43.81c-10.95-16.02-26.91-17.92-42.31-2.92
			l-13,12.68c-15.37,15-17.22,34.43-6.37,50.35L1290,942.8z M1272.38,857.33l13-12.68c9.06-8.82,20.33-7.67,27.45,3.05l29.74,43.79
			c7.12,10.72,5.93,24.01-3.13,32.83l-13,12.68c-9.06,8.88-20.32,7.72-27.44-3l-29.75-43.84
			C1262.14,879.45,1263.32,866.16,1272.38,857.33z M1370.96,863.95c10.95,16.03,27.02,17.81,42.42,2.81l13-12.68
			c15.4-15,17.11-34.32,6.27-50.23l-29.81-43.79c-10.95-16.02-26.91-17.92-42.31-2.92l-13,12.69c-15.37,15-17.22,34.43-6.37,50.34
			L1370.96,863.95z M1353.34,778.48l13-12.69c9.06-8.82,20.33-7.66,27.45,3.06l29.78,43.82c7.12,10.72,5.93,24.01-3.13,32.83
			l-13,12.69c-9.06,8.82-20.33,7.66-27.44-3.06l-29.79-43.82C1343.09,800.59,1344.28,787.3,1353.34,778.48z M1411.15,739.84
			l4.44,2.3c1.55,0.91,2,0.25,2.7-1.53l9.18-26.6l0.57-0.55l54.12,79.67c0.88,1.35,1.89,1.48,3.13,0.26l5.66-5.51
			c1.04-0.93,1.16-2.51,0.27-3.58l-60.48-88.92c-0.86-1.38-1.87-1.48-3-0.38l-4.54,4.37c-1.24,1.22-1.72,3-2.65,5.89l-10.15,32
			C1410.05,738.48,1410.26,739.38,1411.15,739.84z M1499.15,739.11c10.96,16.02,27.03,17.8,42.42,2.8l13-12.68
			c15.39-15,17.11-34.32,6.26-50.23l-29.79-43.79c-10.96-16.02-26.91-17.92-42.31-2.92l-13,12.69c-15.38,15-17.23,34.43-6.38,50.34
			L1499.15,739.11z M1481.52,653.63l13-12.69c9.06-8.82,20.33-7.66,27.45,3.06l29.8,43.78c7.12,10.72,5.94,24.01-3.12,32.83
			l-13,12.69c-9.06,8.82-20.33,7.66-27.45-3.06l-29.8-43.78C1471.28,675.74,1472.46,662.45,1481.52,653.63z M1580.1,660.26
			c10.96,16.03,27.03,17.81,42.43,2.81l13-12.68c15.4-15,17.11-34.32,6.26-50.23l-29.8-43.79c-10.96-16.02-26.91-17.92-42.31-2.92
			l-13,12.69c-15.38,15-17.22,34.43-6.38,50.34L1580.1,660.26z M1562.49,574.79l13-12.69c9.05-8.82,20.32-7.66,27.44,3.06
			l29.81,43.78c7.11,10.72,5.93,24.01-3.13,32.83l-13,12.69c-9.06,8.82-20.33,7.66-27.45-3.06l-29.8-43.78
			C1552.24,596.9,1553.43,583.61,1562.49,574.79z M1620.28,536.17l4.44,2.29c1.55,0.92,2,0.25,2.7-1.53l9.19-26.6l0.56-0.55
			l54.13,79.67c0.87,1.36,1.88,1.48,3.12,0.27l5.66-5.52c1.04-0.92,1.15-2.5,0.27-3.57l-60.48-88.93c-0.86-1.37-1.87-1.47-3-0.37
			l-4.54,4.36c-1.24,1.21-1.71,3-2.65,5.89l-10.15,32C1619.18,534.81,1619.39,535.71,1620.28,536.17z M1708.32,535.45
			c10.95,16.02,27.02,17.81,42.42,2.81l13-12.69c15.4-14.99,17.11-34.31,6.26-50.23l-29.8-43.78
			c-10.96-16.03-26.91-17.92-42.31-2.92l-13,12.68c-15.38,15-17.22,34.43-6.38,50.34L1708.32,535.45z M1690.7,449.97l13-12.68
			c9.06-8.83,20.32-7.67,27.44,3.05l29.81,43.74c7.11,10.71,5.93,24-3.13,32.83l-13,12.68c-9.06,8.87-20.33,7.71-27.45-3
			l-29.8-43.79C1680.45,472.08,1681.64,458.79,1690.7,449.97z M1748.49,411.3l4.44,2.3c1.55,0.91,2,0.25,2.7-1.53l9.19-26.6
			l0.56-0.55l54.13,79.67c0.87,1.35,1.88,1.48,3.12,0.26l5.66-5.51c1.04-0.92,1.15-2.5,0.27-3.57l-60.48-88.93
			c-0.86-1.38-1.87-1.48-3-0.38l-4.54,4.38c-1.24,1.21-1.71,2.99-2.65,5.88l-10.15,32C1747.39,409.94,1747.6,410.84,1748.49,411.3z
			 M1836.45,410.61c10.95,16.03,27.02,17.81,42.42,2.81l13-12.68c15.4-15,17.11-34.32,6.26-50.23l-29.8-43.79
			c-10.96-16.02-26.91-17.92-42.31-2.92l-13,12.69c-15.38,14.99-17.22,34.42-6.38,50.34L1836.45,410.61z M1818.83,325.14l13-12.68
			c9.06-8.82,20.32-7.66,27.44,3.05l29.81,43.74c7.11,10.72,5.93,24.01-3.13,32.83l-13,12.68c-9.06,8.88-20.33,7.72-27.45-3
			l-29.8-43.79C1808.58,347.26,1809.77,333.97,1818.83,325.14z M1917.42,331.75c10.96,16.03,27.02,17.81,42.42,2.81l13-12.68
			c15.4-15,17.11-34.32,6.27-50.23l-29.83-43.76c-10.95-16.02-26.91-17.92-42.31-2.92l-13,12.69
			c-15.37,14.99-17.22,34.43-6.37,50.34L1917.42,331.75z M1899.8,246.28l13-12.68c9.06-8.82,20.33-7.66,27.45,3.05l29.8,43.79
			c7.12,10.72,5.93,24.01-3.13,32.83l-13,12.69c-9.05,8.82-20.32,7.66-27.44-3.06l-29.81-43.79
			C1889.56,268.4,1890.74,255.11,1899.8,246.28z M1957.6,207.64l4.44,2.3c1.55,0.91,2.01,0.25,2.71-1.53l9.18-26.6l0.57-0.55
			l54.12,79.67c0.88,1.35,1.88,1.48,3.13,0.27l5.66-5.52c1.04-0.92,1.15-2.5,0.27-3.57l-60.48-88.93c-0.87-1.37-1.87-1.48-3-0.37
			l-4.55,4.41c-1.25,1.21-1.72,2.99-2.65,5.89l-10.14,31.95C1956.51,206.29,1956.72,207.18,1957.6,207.64z M2004.85,161.64
			l4.44,2.29c1.55,0.92,2.01,0.25,2.71-1.53l9.17-26.6l0.57-0.55l54.12,79.67c0.88,1.36,1.88,1.48,3.13,0.27l5.66-5.51
			c1.04-0.93,1.16-2.51,0.27-3.58l-60.48-88.93c-0.87-1.35-1.87-1.47-3-0.37l-4.53,4.36c-1.25,1.21-1.72,3-2.65,5.89l-10.15,32
			C2003.75,160.28,2003.97,161.18,2004.85,161.64z M2052.11,115.66l4.44,2.3c1.55,0.91,2.01,0.25,2.7-1.53l9.19-26.6l0.56-0.55
			l54.07,79.67c0.87,1.35,1.88,1.48,3.12,0.26l5.66-5.51c1.03-0.92,1.16-2.5,0.28-3.57l-60.49-88.93c-0.86-1.35-1.86-1.48-3-0.38
			l-4.48,4.42c-1.24,1.21-1.71,2.99-2.65,5.89l-10.15,31.95C2051.01,114.3,2051.22,115.2,2052.11,115.66z M2140.04,114.94
			c10.96,16.02,27.03,17.81,42.43,2.81l13-12.68c15.4-15,17.11-34.32,6.26-50.24l-29.8-43.78C2161-5,2145-6.87,2129.62,8.13
			l-13,12.68c-15.38,15-17.23,34.43-6.38,50.34L2140.04,114.94z M2122.42,29.46l13-12.68c9.06-8.83,20.33-7.67,27.45,3.05
			l29.8,43.74c7.12,10.72,5.94,24-3.12,32.83l-13,12.68c-9.06,8.87-20.33,7.71-27.45-3l-29.8-43.79
			C2112.18,51.57,2113.36,38.28,2122.42,29.46z"/>
	</g>
</g>
</svg>
