<svg id="Layer_1" data-name="Layer 1" xmlns="http://www.w3.org/2000/svg" viewBox="0 0 2716.86 2323.77"><defs><style>.cls-1{opacity:0.3;}.cls-2{fill:#fff;}</style></defs><title>Artboard 1</title><g class="cls-1"><path class="cls-2" d="M606.6,2252.68c10.85,15.91,9.13,35.23-6.27,50.23l-13,12.68c-15.4,15-31.46,13.22-42.42-2.81L515.09,2269c-10.85-15.92-9-35.35,6.37-50.35l13-12.68c15.4-15,31.36-13.1,42.31,2.92Zm-38.86-35c-7.12-10.71-18.39-11.87-27.45-3.05l-13,12.68c-9.06,8.83-10.24,22.12-3.13,32.83L554,2304c7.12,10.72,18.39,11.88,27.44,3.05l13-12.68c9.06-8.82,10.25-22.11,3.13-32.83Z"/><path class="cls-2" d="M601.71,2143.81c1.13-1.1,2.13-1,3,.38l60.48,88.92a2.59,2.59,0,0,1-.27,3.58l-5.66,5.51c-1.25,1.22-2.25,1.09-3.13-.26L602,2162.26l-.57.56-9.18,26.6c-.7,1.78-1.15,2.44-2.71,1.52l-4.43-2.29c-.89-.46-1.1-1.36-.75-2.58l10.15-32c.93-2.89,1.4-4.67,2.65-5.89Z"/><path class="cls-2" d="M734.76,2127.86c10.84,15.92,9.13,35.24-6.27,50.23l-13,12.69c-15.4,15-31.47,13.21-42.42-2.81l-29.81-43.79c-10.84-15.91-9-35.34,6.38-50.34l13-12.68c15.4-15,31.35-13.11,42.31,2.92Zm-38.87-35c-7.11-10.72-18.38-11.88-27.44-3.06l-13,12.69c-9.06,8.82-10.25,22.11-3.13,32.83l29.81,43.79c7.11,10.71,18.38,11.87,27.44,3l13-12.68c9.06-8.83,10.25-22.12,3.13-32.83Z"/><path class="cls-2" d="M729.86,2019c1.13-1.1,2.14-1,3,.38l60.48,88.92a2.59,2.59,0,0,1-.27,3.58l-5.66,5.51c-1.24,1.22-2.25,1.09-3.12-.26l-54.13-79.67-.56.55-9.19,26.6c-.69,1.78-1.15,2.44-2.7,1.53l-4.44-2.3c-.89-.46-1.1-1.36-.75-2.58l10.15-32c.94-2.89,1.41-4.67,2.65-5.89Z"/><path class="cls-2" d="M863,2003c10.85,15.92,9.13,35.24-6.27,50.24l-13,12.68c-15.39,15-31.46,13.22-42.42-2.81l-29.8-43.79c-10.85-15.91-9-35.34,6.37-50.34l13-12.68c15.4-15,31.35-13.11,42.31,2.92Zm-38.86-35c-7.12-10.72-18.39-11.88-27.45-3l-13,12.68c-9.06,8.82-10.24,22.11-3.12,32.83l29.8,43.79c7.12,10.72,18.39,11.87,27.45,3l13-12.68c9.05-8.82,10.24-22.11,3.12-32.83Z"/><path class="cls-2" d="M943.92,1924.16c10.84,15.91,9.13,35.23-6.27,50.23l-13,12.69c-15.4,15-31.47,13.21-42.42-2.81l-29.81-43.79c-10.84-15.91-9-35.34,6.38-50.34l13-12.68c15.4-15,31.35-13.11,42.31,2.91Zm-38.87-35c-7.11-10.72-18.38-11.88-27.44-3.06l-13,12.69c-9.06,8.82-10.25,22.11-3.13,32.83l29.8,43.78c7.12,10.72,18.39,11.88,27.45,3.06l13-12.69c9.06-8.82,10.25-22.11,3.13-32.83Z"/><path class="cls-2" d="M939,1815.3c1.14-1.1,2.14-1,3,.38l60.49,88.92a2.6,2.6,0,0,1-.28,3.58l-5.66,5.51c-1.24,1.21-2.25,1.09-3.12-.26l-54.13-79.68-.56.56-9.19,26.6c-.69,1.78-1.15,2.44-2.7,1.52l-4.44-2.29c-.89-.46-1.1-1.36-.75-2.58l10.15-32c.94-2.89,1.41-4.67,2.65-5.89Z"/><path class="cls-2" d="M1072.09,1799.33c10.85,15.91,9.13,35.23-6.26,50.23l-13,12.69c-15.39,15-31.46,13.21-42.42-2.81l-29.8-43.79c-10.85-15.91-9-35.34,6.38-50.34l13-12.68c15.4-15,31.35-13.11,42.31,2.91Zm-38.86-35c-7.12-10.72-18.39-11.88-27.45-3.06l-13,12.69c-9.06,8.82-10.24,22.11-3.12,32.83l29.8,43.78c7.12,10.72,18.39,11.88,27.45,3.06l13-12.69c9.06-8.82,10.24-22.11,3.12-32.83Z"/><path class="cls-2" d="M1153.06,1720.48c10.85,15.91,9.13,35.23-6.27,50.23l-13,12.68c-15.4,15-31.46,13.22-42.42-2.81l-29.8-43.78c-10.85-15.91-9-35.34,6.37-50.35l13-12.68c15.4-15,31.36-13.1,42.32,2.92Zm-38.86-35c-7.12-10.72-18.39-11.88-27.45-3.06l-13,12.68c-9.06,8.83-10.24,22.12-3.12,32.83l29.8,43.79c7.12,10.72,18.39,11.88,27.44,3l13-12.68c9-8.82,10.24-22.11,3.12-32.83Z"/><path class="cls-2" d="M1148.17,1611.61c1.13-1.1,2.14-1,3,.38l60.48,88.92a2.59,2.59,0,0,1-.27,3.58l-5.66,5.51c-1.25,1.22-2.25,1.09-3.13-.26l-54.12-79.68-.57.56-9.18,26.6c-.7,1.78-1.15,2.44-2.71,1.52l-4.43-2.29c-.89-.46-1.1-1.36-.75-2.58l10.15-32c.93-2.89,1.4-4.67,2.65-5.89Z"/><path class="cls-2" d="M1281.22,1595.66c10.85,15.91,9.13,35.23-6.26,50.23l-13,12.68c-15.39,15-31.46,13.22-42.42-2.81l-29.8-43.78c-10.85-15.92-9-35.35,6.38-50.35l13-12.68c15.4-15,31.35-13.1,42.31,2.92Zm-38.86-35c-7.12-10.72-18.39-11.88-27.45-3.06l-13,12.68c-9.06,8.83-10.24,22.12-3.12,32.83l29.8,43.79c7.12,10.72,18.39,11.88,27.45,3l13-12.68c9.06-8.82,10.24-22.11,3.12-32.83Z"/><path class="cls-2" d="M1362.18,1516.81c10.85,15.92,9.13,35.24-6.27,50.23l-13,12.69c-15.39,15-31.46,13.21-42.42-2.81l-29.8-43.79c-10.85-15.91-9-35.34,6.38-50.34l13-12.68c15.4-15,31.35-13.11,42.31,2.92Zm-38.86-35c-7.12-10.72-18.39-11.88-27.45-3.06l-13,12.69c-9.06,8.82-10.24,22.11-3.12,32.83l29.8,43.79c7.12,10.71,18.39,11.87,27.45,3.05l13-12.68c9-8.83,10.24-22.12,3.12-32.83Z"/><path class="cls-2" d="M1443.18,1437.93c10.85,15.91,9.13,35.23-6.27,50.23l-13,12.68c-15.4,15-31.46,13.22-42.42-2.81l-29.8-43.78c-10.85-15.91-9-35.34,6.37-50.34l13-12.69c15.4-15,31.36-13.1,42.32,2.92Zm-38.86-35c-7.12-10.72-18.39-11.88-27.45-3.06l-13,12.68c-9.06,8.83-10.24,22.12-3.12,32.84l29.8,43.78c7.12,10.72,18.39,11.88,27.44,3l13-12.68c9-8.82,10.24-22.11,3.12-32.83Z"/><path class="cls-2" d="M1524.11,1359.11c10.84,15.91,9.13,35.23-6.27,50.23l-13,12.68c-15.4,15-31.47,13.22-42.42-2.81l-29.8-43.78c-10.85-15.91-9-35.34,6.37-50.34l13-12.68c15.4-15,31.36-13.11,42.31,2.91Zm-38.86-35c-7.12-10.72-18.39-11.88-27.45-3.06l-13,12.69c-9.06,8.82-10.24,22.11-3.13,32.83l29.81,43.78c7.12,10.72,18.38,11.88,27.44,3.06l13-12.69c9.06-8.82,10.25-22.11,3.13-32.83Z"/><path class="cls-2" d="M1605.1,1280.23c10.85,15.92,9.13,35.24-6.27,50.23l-13,12.69c-15.4,15-31.46,13.21-42.42-2.81l-29.8-43.79c-10.85-15.91-9-35.34,6.37-50.34l13-12.68c15.39-15,31.35-13.11,42.31,2.92Zm-38.86-35c-7.12-10.72-18.39-11.88-27.45-3.06l-13,12.69c-9.06,8.82-10.24,22.11-3.12,32.83l29.8,43.79c7.12,10.71,18.39,11.87,27.45,3l13-12.68c9-8.83,10.24-22.12,3.12-32.83Z"/><path class="cls-2" d="M1600.2,1171.38q1.69-1.65,3,.38l60.48,88.92a2.59,2.59,0,0,1-.27,3.58l-5.66,5.51c-1.25,1.22-2.25,1.09-3.13-.26l-54.12-79.67-.57.55-9.19,26.6c-.69,1.78-1.15,2.44-2.7,1.52l-4.44-2.29c-.89-.46-1.1-1.36-.74-2.58l10.15-32c.93-2.89,1.4-4.67,2.65-5.89Z"/><path class="cls-2" d="M1733.25,1155.42c10.85,15.91,9.14,35.24-6.26,50.23l-13,12.69c-15.4,15-31.47,13.21-42.42-2.81l-29.81-43.79c-10.84-15.91-9-35.34,6.38-50.34l13-12.68c15.4-15,31.35-13.11,42.31,2.92Zm-38.86-35c-7.12-10.72-18.39-11.88-27.44-3.06l-13,12.69c-9.06,8.82-10.25,22.11-3.13,32.83l29.8,43.78c7.12,10.72,18.39,11.88,27.45,3.06l13-12.68c9.06-8.83,10.24-22.12,3.13-32.83Z"/><path class="cls-2" d="M1728.37,1046.56c1.13-1.11,2.13-1,3,.37l60.48,88.93a2.58,2.58,0,0,1-.27,3.57l-5.66,5.52c-1.25,1.21-2.25,1.08-3.13-.27L1728.68,1065l-.57.55-9.19,26.6c-.69,1.78-1.15,2.44-2.7,1.53l-4.44-2.3c-.89-.46-1.1-1.35-.74-2.58l10.15-32c.93-2.9,1.4-4.68,2.65-5.89Z"/><path class="cls-2" d="M1861.45,1030.57c10.85,15.91,9.13,35.24-6.27,50.23l-13,12.69c-15.39,15-31.46,13.21-42.42-2.81l-29.8-43.79c-10.85-15.91-9-35.34,6.37-50.34l13-12.68c15.39-15,31.35-13.11,42.31,2.92Zm-38.86-35c-7.12-10.72-18.39-11.88-27.45-3.06l-13,12.69c-9.06,8.82-10.24,22.11-3.12,32.83l29.8,43.78c7.12,10.72,18.39,11.88,27.45,3.06l13-12.68c9-8.83,10.24-22.12,3.12-32.83Z"/><path class="cls-2" d="M1942.41,951.73c10.85,15.91,9.13,35.23-6.27,50.23l-13,12.68c-15.4,15-31.46,13.22-42.42-2.81L1850.9,968c-10.85-15.91-9-35.34,6.37-50.34l13-12.68c15.4-15,31.36-13.11,42.32,2.92Zm-38.86-35c-7.12-10.72-18.39-11.87-27.45-3l-13,12.68c-9.06,8.82-10.24,22.11-3.12,32.83l29.8,43.79c7.12,10.72,18.39,11.88,27.45,3l13-12.68c9-8.82,10.24-22.11,3.12-32.83Z"/><path class="cls-2" d="M1937.5,842.88c1.13-1.1,2.14-1,3,.37L2001,932.18a2.58,2.58,0,0,1-.27,3.57l-5.66,5.52c-1.24,1.21-2.25,1.09-3.12-.27l-54.13-79.67-.56.55-9.19,26.6c-.7,1.78-1.15,2.45-2.7,1.53l-4.44-2.29c-.89-.46-1.1-1.36-.75-2.59l10.15-32c.93-2.89,1.41-4.68,2.65-5.89Z"/><path class="cls-2" d="M2070.59,826.89c10.85,15.91,9.14,35.23-6.26,50.23l-13,12.68c-15.4,15-31.47,13.22-42.43-2.81l-29.8-43.78c-10.85-15.92-9-35.35,6.38-50.35l13-12.68c15.4-15,31.35-13.1,42.31,2.92Zm-38.86-35c-7.12-10.71-18.39-11.87-27.45-3l-13,12.68c-9.06,8.83-10.24,22.12-3.12,32.83l29.8,43.79c7.12,10.72,18.39,11.88,27.45,3.05l13-12.68c9.06-8.82,10.24-22.11,3.12-32.83Z"/><path class="cls-2" d="M2151.55,748c10.85,15.91,9.14,35.23-6.26,50.23l-13,12.68c-15.4,15-31.47,13.22-42.42-2.81L2060,764.36c-10.84-15.92-9-35.35,6.38-50.35l13-12.68c15.4-15,31.35-13.11,42.31,2.92Zm-38.86-35c-7.12-10.72-18.38-11.87-27.44-3.05l-13,12.68c-9.06,8.82-10.25,22.11-3.13,32.83l29.8,43.79c7.12,10.72,18.39,11.87,27.45,3l13-12.68c9.06-8.82,10.24-22.11,3.13-32.83Z"/><path class="cls-2" d="M2146.66,639.18c1.13-1.11,2.14-1,3,.37l60.48,88.93a2.58,2.58,0,0,1-.27,3.57l-5.66,5.52c-1.24,1.21-2.25,1.08-3.12-.27L2147,657.63l-.56.55-9.19,26.6c-.7,1.78-1.15,2.44-2.7,1.53l-4.44-2.3c-.89-.46-1.1-1.35-.75-2.58l10.15-31.95c.94-2.9,1.41-4.68,2.65-5.89Z"/><path class="cls-2" d="M2279.71,623.22c10.85,15.91,9.14,35.23-6.26,50.23l-13,12.68c-15.4,15-31.47,13.22-42.42-2.8l-29.81-43.79c-10.84-15.91-9-35.34,6.38-50.34l13-12.69c15.4-15,31.35-13.1,42.31,2.92Zm-38.86-35c-7.11-10.72-18.38-11.88-27.44-3.06l-13,12.69c-9.06,8.82-10.25,22.11-3.13,32.83l29.8,43.78c7.12,10.72,18.39,11.88,27.45,3.06l13-12.69c9.06-8.82,10.25-22.11,3.13-32.83Z"/><path class="cls-2" d="M2274.84,514.34c1.13-1.1,2.14-1,3,.38l60.48,88.92a2.59,2.59,0,0,1-.27,3.58l-5.66,5.51c-1.24,1.21-2.25,1.09-3.12-.26l-54.13-79.68-.56.56-9.19,26.59c-.69,1.78-1.15,2.45-2.7,1.53l-4.44-2.29c-.89-.46-1.1-1.36-.75-2.58l10.15-32c.94-2.89,1.41-4.68,2.65-5.89Z"/><path class="cls-2" d="M2407.9,498.38c10.84,15.92,9.13,35.24-6.27,50.24l-13,12.68c-15.4,15-31.46,13.21-42.42-2.81l-29.8-43.79c-10.85-15.91-9-35.34,6.37-50.34l13-12.68c15.4-15,31.36-13.11,42.31,2.92Zm-38.86-35c-7.12-10.72-18.39-11.88-27.45-3.05l-13,12.68c-9.06,8.82-10.24,22.11-3.13,32.83l29.81,43.79c7.12,10.71,18.38,11.87,27.44,3.05l13-12.68c9.06-8.83,10.25-22.11,3.13-32.83Z"/><path class="cls-2" d="M2488.87,419.52c10.85,15.92,9.13,35.24-6.27,50.24l-13,12.68c-15.4,15-31.46,13.22-42.42-2.81l-29.8-43.79c-10.85-15.91-9-35.34,6.37-50.34l13-12.68c15.4-15,31.36-13.11,42.32,2.92Zm-38.86-35c-7.12-10.72-18.39-11.88-27.45-3.05l-13,12.68c-9.06,8.82-10.24,22.11-3.12,32.83l29.8,43.79c7.12,10.72,18.39,11.87,27.44,3.05l13-12.68c9-8.82,10.24-22.11,3.12-32.83Z"/><path class="cls-2" d="M2484,310.68c1.13-1.1,2.14-1,3,.38L2547.45,400a2.59,2.59,0,0,1-.27,3.58l-5.66,5.51c-1.25,1.22-2.25,1.09-3.13-.26l-54.12-79.67-.57.55-9.18,26.6c-.7,1.78-1.15,2.44-2.71,1.52l-4.44-2.29c-.88-.46-1.09-1.36-.74-2.58l10.15-32c.93-2.89,1.4-4.67,2.65-5.89Z"/><path class="cls-2" d="M2531.2,264.67q1.7-1.65,3,.38L2594.69,354a2.58,2.58,0,0,1-.27,3.57l-5.66,5.52c-1.25,1.21-2.25,1.08-3.13-.27l-54.12-79.67-.57.55-9.18,26.6c-.7,1.78-1.16,2.44-2.71,1.53l-4.44-2.3c-.88-.46-1.1-1.35-.74-2.58L2524,275c.93-2.9,1.4-4.68,2.65-5.89Z"/><path class="cls-2" d="M2578.4,218.7c1.14-1.1,2.14-1,3,.38L2641.9,308a2.6,2.6,0,0,1-.28,3.58l-5.66,5.51c-1.24,1.21-2.25,1.09-3.12-.26l-54.13-79.68-.56.56L2569,264.3c-.69,1.78-1.15,2.45-2.7,1.53l-4.44-2.29c-.89-.46-1.1-1.36-.75-2.58l10.16-32c.93-2.89,1.4-4.67,2.64-5.89Z"/><path class="cls-2" d="M2711.49,202.71c10.85,15.91,9.14,35.23-6.26,50.23l-13,12.69c-15.4,15-31.47,13.21-42.43-2.81L2620,219c-10.85-15.91-9-35.34,6.38-50.34l13-12.68c15.4-15,31.35-13.11,42.31,2.91Zm-38.86-35c-7.12-10.72-18.39-11.88-27.45-3.06l-13,12.69c-9,8.82-10.24,22.11-3.12,32.83l29.8,43.78c7.12,10.72,18.39,11.88,27.45,3.06l13-12.69c9.06-8.82,10.24-22.11,3.12-32.83Z"/><path class="cls-2" d="M435.31,2204.83c10.84,15.91,9.13,35.23-6.27,50.23l-13,12.68c-15.4,15-31.46,13.22-42.42-2.81l-29.8-43.79c-10.85-15.91-9-35.34,6.37-50.34l13-12.68c15.4-15,31.36-13.11,42.31,2.92Zm-38.86-35c-7.12-10.72-18.39-11.87-27.45-3.05l-13,12.68c-9.06,8.82-10.25,22.11-3.13,32.83l29.81,43.79c7.11,10.72,18.38,11.88,27.44,3l13-12.68c9.06-8.82,10.25-22.11,3.13-32.83Z"/><path class="cls-2" d="M430.42,2096q1.69-1.65,3,.38l60.48,88.92a2.59,2.59,0,0,1-.27,3.58l-5.66,5.51c-1.25,1.22-2.25,1.09-3.13-.26l-54.12-79.67-.57.55-9.18,26.6c-.7,1.78-1.15,2.44-2.71,1.52l-4.44-2.29c-.88-.46-1.09-1.36-.74-2.58l10.15-32c.93-2.89,1.4-4.67,2.65-5.89Z"/><path class="cls-2" d="M563.46,2080c10.85,15.92,9.14,35.24-6.26,50.24l-13,12.68c-15.4,15-31.47,13.21-42.43-2.81L472,2096.33c-10.85-15.91-9-35.34,6.38-50.34l13-12.68c15.4-15,31.35-13.11,42.31,2.92Zm-38.86-35c-7.12-10.72-18.39-11.88-27.44-3l-13,12.68c-9.05,8.82-10.24,22.11-3.12,32.83l29.8,43.79c7.12,10.71,18.39,11.87,27.45,3l13-12.68c9.06-8.83,10.24-22.12,3.12-32.83Z"/><path class="cls-2" d="M558.57,1971.15c1.13-1.1,2.14-1,3,.38l60.48,88.92a2.59,2.59,0,0,1-.27,3.58l-5.66,5.51c-1.25,1.22-2.25,1.09-3.12-.26l-54.13-79.68-.57.56-9.18,26.6c-.7,1.78-1.15,2.44-2.7,1.52L542,2016c-.89-.46-1.1-1.36-.75-2.58l10.15-32c.94-2.89,1.41-4.67,2.65-5.89Z"/><path class="cls-2" d="M691.66,1955.16c10.84,15.91,9.13,35.23-6.27,50.23l-13,12.69c-15.4,15-31.46,13.21-42.42-2.81l-29.8-43.79c-10.85-15.91-9-35.34,6.37-50.34l13-12.68c15.4-15,31.36-13.11,42.31,2.92Zm-38.86-35c-7.12-10.72-18.39-11.88-27.45-3.06l-13,12.69c-9.06,8.82-10.24,22.11-3.13,32.83L639,2006.44c7.11,10.72,18.38,11.88,27.44,3.06l13-12.69c9.06-8.82,10.25-22.11,3.13-32.82Z"/><path class="cls-2" d="M772.62,1876.31c10.85,15.91,9.14,35.23-6.26,50.23l-13,12.68c-15.4,15-31.47,13.22-42.43-2.8l-29.8-43.79c-10.85-15.91-9-35.34,6.38-50.34l13-12.68c15.4-15,31.35-13.11,42.31,2.91Zm-38.86-35c-7.12-10.72-18.39-11.88-27.45-3.06l-13,12.69c-9,8.82-10.24,22.11-3.12,32.83l29.8,43.78c7.12,10.72,18.39,11.88,27.45,3.06l13-12.69c9.06-8.82,10.24-22.11,3.12-32.83Z"/><path class="cls-2" d="M767.73,1767.45c1.13-1.1,2.14-1,3,.37l60.48,88.93a2.58,2.58,0,0,1-.27,3.57l-5.66,5.52c-1.25,1.21-2.25,1.09-3.13-.27L768,1785.9l-.57.55-9.18,26.6c-.7,1.78-1.15,2.45-2.7,1.53l-4.44-2.29c-.89-.46-1.1-1.36-.75-2.59l10.15-32c.93-2.89,1.41-4.68,2.65-5.89Z"/><path class="cls-2" d="M900.8,1751.48c10.85,15.91,9.13,35.23-6.27,50.23l-13,12.68c-15.4,15-31.46,13.22-42.42-2.81l-29.8-43.78c-10.85-15.91-9-35.34,6.37-50.34l13-12.69c15.4-15,31.36-13.1,42.32,2.92Zm-38.86-35c-7.12-10.72-18.39-11.88-27.45-3.06l-13,12.68c-9.06,8.83-10.24,22.12-3.12,32.83l29.8,43.79c7.12,10.72,18.39,11.88,27.44,3l13-12.68c9-8.82,10.24-22.11,3.12-32.83Z"/><path class="cls-2" d="M981.76,1672.62c10.85,15.92,9.14,35.24-6.26,50.24l-13,12.68c-15.4,15-31.47,13.21-42.43-2.81l-29.8-43.79c-10.85-15.91-9-35.34,6.38-50.34l13-12.68c15.4-15,31.35-13.11,42.31,2.92Zm-38.86-35c-7.12-10.72-18.39-11.88-27.44-3.05l-13,12.68c-9,8.82-10.24,22.11-3.12,32.83l29.8,43.79c7.12,10.72,18.39,11.87,27.45,3l13-12.68c9.06-8.83,10.24-22.12,3.13-32.83Z"/><path class="cls-2" d="M976.88,1563.76q1.7-1.65,3,.37l60.48,88.93a2.58,2.58,0,0,1-.27,3.57l-5.66,5.52c-1.25,1.21-2.25,1.09-3.13-.27l-54.12-79.67-.57.55-9.19,26.6c-.69,1.78-1.15,2.45-2.7,1.53l-4.44-2.29c-.89-.46-1.1-1.36-.75-2.59l10.16-32c.93-2.89,1.4-4.68,2.65-5.89Z"/><path class="cls-2" d="M1109.93,1547.8c10.84,15.92,9.13,35.24-6.27,50.24l-13,12.68c-15.4,15-31.47,13.22-42.42-2.81l-29.81-43.79c-10.84-15.91-9-35.34,6.38-50.34l13-12.68c15.4-15,31.35-13.11,42.31,2.92Zm-38.86-35c-7.12-10.72-18.39-11.88-27.45-3l-13,12.68c-9.06,8.82-10.25,22.11-3.13,32.83l29.81,43.79c7.11,10.72,18.38,11.87,27.44,3.05l13-12.68c9.06-8.82,10.25-22.11,3.13-32.83Z"/><path class="cls-2" d="M1190.89,1469c10.84,15.91,9.13,35.23-6.27,50.23l-13,12.68c-15.4,15-31.47,13.22-42.42-2.81l-29.81-43.78c-10.84-15.91-9-35.34,6.38-50.34l13-12.69c15.4-15,31.35-13.1,42.31,2.92ZM1152,1434c-7.11-10.72-18.38-11.88-27.44-3.06l-13,12.68c-9.06,8.83-10.25,22.12-3.13,32.83l29.8,43.79c7.12,10.72,18.39,11.88,27.45,3l13-12.68c9.06-8.82,10.25-22.11,3.13-32.83Z"/><path class="cls-2" d="M1271.88,1390.07c10.85,15.92,9.14,35.24-6.26,50.23l-13,12.69c-15.4,15-31.47,13.21-42.43-2.81l-29.8-43.79c-10.85-15.91-9-35.34,6.38-50.34l13-12.68c15.4-15,31.35-13.11,42.31,2.92Zm-38.86-35c-7.12-10.72-18.39-11.88-27.45-3.06l-13,12.69c-9.06,8.82-10.24,22.11-3.12,32.83l29.8,43.79c7.12,10.71,18.39,11.87,27.45,3.05l13-12.68c9.06-8.83,10.24-22.12,3.12-32.83Z"/><path class="cls-2" d="M1352.81,1311.26c10.85,15.91,9.14,35.23-6.26,50.23l-13,12.68c-15.4,15-31.47,13.22-42.43-2.81l-29.8-43.79c-10.85-15.91-9-35.34,6.38-50.34l13-12.68c15.4-15,31.35-13.11,42.31,2.92Zm-38.86-35c-7.12-10.72-18.39-11.87-27.44-3l-13,12.68c-9,8.82-10.24,22.11-3.12,32.83l29.8,43.79c7.12,10.72,18.39,11.88,27.45,3l13-12.68c9.06-8.82,10.24-22.11,3.13-32.83Z"/><path class="cls-2" d="M1433.77,1232.41c10.85,15.91,9.14,35.23-6.26,50.23l-13,12.68c-15.4,15-31.47,13.22-42.43-2.81l-29.8-43.79c-10.85-15.91-9-35.34,6.38-50.34l13-12.68c15.4-15,31.35-13.11,42.31,2.92Zm-38.86-35c-7.12-10.72-18.39-11.87-27.44-3l-13,12.68c-9,8.82-10.24,22.11-3.12,32.83l29.8,43.79c7.12,10.72,18.39,11.88,27.45,3l13-12.68c9.06-8.82,10.24-22.11,3.12-32.83Z"/><path class="cls-2" d="M1428.9,1123.53c1.13-1.11,2.14-1,3,.37l60.48,88.93a2.58,2.58,0,0,1-.27,3.57l-5.66,5.52c-1.25,1.21-2.25,1.09-3.13-.27L1429.21,1142l-.57.55-9.18,26.6c-.7,1.78-1.15,2.45-2.71,1.53l-4.43-2.3c-.89-.46-1.1-1.35-.75-2.58l10.15-32c.93-2.9,1.4-4.68,2.65-5.89Z"/><path class="cls-2" d="M1562,1107.57c10.84,15.91,9.13,35.23-6.27,50.23l-13,12.68c-15.4,15-31.47,13.22-42.42-2.81l-29.8-43.79c-10.85-15.91-9-35.34,6.37-50.34l13-12.68c15.4-15,31.36-13.11,42.31,2.92Zm-38.86-35c-7.12-10.72-18.39-11.87-27.45-3l-13,12.68c-9.06,8.82-10.25,22.11-3.13,32.83l29.81,43.79c7.11,10.72,18.38,11.88,27.44,3.05l13-12.68c9.06-8.82,10.25-22.11,3.13-32.83Z"/><path class="cls-2" d="M1557.07,998.7c1.13-1.1,2.14-1,3,.38l60.48,88.92a2.59,2.59,0,0,1-.27,3.58l-5.66,5.51c-1.24,1.21-2.25,1.09-3.13-.26l-54.12-79.68-.57.56-9.18,26.59c-.7,1.79-1.15,2.45-2.7,1.53l-4.44-2.29c-.89-.46-1.1-1.36-.75-2.58l10.15-32c.93-2.89,1.41-4.67,2.65-5.89Z"/><path class="cls-2" d="M1690.15,982.72c10.85,15.91,9.14,35.23-6.26,50.23l-13,12.68c-15.39,15-31.46,13.22-42.42-2.81L1598.64,999c-10.85-15.91-9-35.34,6.38-50.34L1618,936c15.4-15,31.35-13.11,42.31,2.92Zm-38.86-35c-7.12-10.72-18.39-11.87-27.45-3l-13,12.68c-9.06,8.82-10.24,22.11-3.12,32.83l29.8,43.79c7.12,10.72,18.39,11.88,27.45,3l13-12.68c9.06-8.82,10.24-22.11,3.12-32.83Z"/><path class="cls-2" d="M1771.11,903.87c10.85,15.91,9.13,35.23-6.26,50.23l-13,12.68c-15.39,15-31.46,13.22-42.42-2.81l-29.8-43.78c-10.85-15.91-9-35.34,6.38-50.34l13-12.68c15.4-15,31.35-13.11,42.31,2.91Zm-38.86-35c-7.12-10.72-18.39-11.88-27.45-3.06l-13,12.68c-9.06,8.83-10.24,22.12-3.12,32.84l29.8,43.78c7.12,10.72,18.39,11.88,27.45,3.06l13-12.69c9.06-8.82,10.24-22.11,3.12-32.83Z"/><path class="cls-2" d="M1766.2,795c1.14-1.1,2.14-1,3,.38l60.48,88.92a2.61,2.61,0,0,1-.27,3.58l-5.67,5.51c-1.24,1.22-2.24,1.09-3.12-.26l-54.12-79.67-.57.55-9.19,26.6c-.69,1.78-1.15,2.44-2.7,1.53l-4.44-2.3c-.89-.46-1.1-1.36-.75-2.58l10.16-32c.93-2.89,1.4-4.67,2.65-5.89Z"/><path class="cls-2" d="M1899.3,779c10.84,15.91,9.13,35.23-6.27,50.23l-13,12.68c-15.4,15-31.47,13.22-42.42-2.81l-29.81-43.78c-10.84-15.91-9-35.34,6.38-50.34l13-12.69c15.4-15,31.35-13.1,42.31,2.92Zm-38.86-35c-7.12-10.72-18.39-11.88-27.45-3.06l-13,12.69c-9.06,8.82-10.25,22.11-3.13,32.83l29.81,43.78c7.11,10.72,18.38,11.88,27.44,3.06l13-12.69c9.06-8.82,10.25-22.11,3.13-32.83Z"/><path class="cls-2" d="M1980.26,700.18c10.84,15.91,9.13,35.23-6.27,50.23l-13,12.68c-15.4,15-31.47,13.22-42.42-2.81l-29.8-43.78c-10.85-15.91-9-35.35,6.37-50.34l13-12.69c15.4-15,31.36-13.1,42.31,2.92Zm-38.86-35c-7.12-10.72-18.39-11.88-27.45-3.06l-13,12.68c-9.06,8.83-10.24,22.12-3.13,32.84l29.81,43.78c7.12,10.72,18.38,11.88,27.44,3.06l13-12.69c9.06-8.82,10.25-22.11,3.13-32.83Z"/><path class="cls-2" d="M1975.36,591.32c1.14-1.1,2.14-1,3,.37l60.48,88.93a2.61,2.61,0,0,1-.27,3.58l-5.67,5.51c-1.24,1.21-2.25,1.09-3.12-.27l-54.13-79.67-.56.55-9.19,26.6c-.69,1.78-1.15,2.45-2.7,1.53l-4.44-2.29c-.89-.46-1.1-1.36-.75-2.59l10.16-32c.93-2.89,1.4-4.68,2.65-5.89Z"/><path class="cls-2" d="M2108.44,575.33c10.85,15.92,9.14,35.24-6.26,50.24l-13,12.68c-15.4,15-31.47,13.21-42.42-2.81l-29.81-43.79c-10.84-15.91-9-35.34,6.38-50.34l13-12.68c15.4-15,31.35-13.11,42.31,2.92Zm-38.86-35c-7.11-10.72-18.38-11.88-27.44-3l-13,12.68c-9.06,8.82-10.25,22.11-3.13,32.83l29.8,43.79c7.12,10.71,18.39,11.87,27.45,3l13-12.68c9.06-8.83,10.25-22.11,3.13-32.83Z"/><path class="cls-2" d="M2103.54,466.48c1.14-1.1,2.14-1,3,.38L2167,555.78a2.61,2.61,0,0,1-.27,3.58l-5.67,5.51c-1.24,1.22-2.25,1.09-3.12-.26l-54.13-79.67-.56.55-9.19,26.6c-.69,1.78-1.15,2.44-2.7,1.53l-4.44-2.3c-.89-.46-1.1-1.36-.75-2.58l10.16-32c.93-2.89,1.4-4.67,2.65-5.89Z"/><path class="cls-2" d="M2236.63,450.5c10.84,15.91,9.13,35.23-6.27,50.23l-13,12.68c-15.4,15-31.47,13.22-42.42-2.81l-29.81-43.78c-10.84-15.91-9-35.34,6.38-50.34l13-12.69c15.4-15,31.35-13.1,42.31,2.92Zm-38.87-35c-7.11-10.72-18.38-11.88-27.44-3.06l-13,12.69c-9.06,8.82-10.25,22.11-3.13,32.83l29.8,43.78c7.12,10.72,18.39,11.88,27.45,3.06l13-12.69c9.06-8.82,10.25-22.11,3.13-32.83Z"/><path class="cls-2" d="M2317.57,371.67c10.85,15.91,9.13,35.23-6.27,50.23l-13,12.68c-15.39,15-31.46,13.22-42.42-2.81L2226.06,388c-10.85-15.92-9-35.35,6.38-50.35l13-12.68c15.4-15,31.35-13.1,42.31,2.92Zm-38.86-35c-7.12-10.71-18.39-11.87-27.45-3.05l-13,12.68c-9.06,8.82-10.24,22.11-3.12,32.83l29.8,43.79c7.12,10.72,18.39,11.88,27.45,3.05l13-12.68c9.05-8.82,10.24-22.11,3.12-32.83Z"/><path class="cls-2" d="M2312.68,262.8c1.14-1.1,2.14-1,3,.37l60.48,88.93a2.59,2.59,0,0,1-.27,3.57l-5.67,5.52c-1.24,1.21-2.24,1.09-3.12-.27L2313,281.25l-.57.55-9.19,26.6c-.69,1.78-1.15,2.45-2.7,1.53l-4.44-2.29c-.89-.46-1.1-1.36-.75-2.59l10.16-31.95c.93-2.89,1.4-4.68,2.65-5.89Z"/><path class="cls-2" d="M2359.9,216.82c1.13-1.11,2.13-1,3,.37l60.48,88.93a2.58,2.58,0,0,1-.27,3.57l-5.66,5.52c-1.25,1.21-2.25,1.08-3.13-.27l-54.12-79.67-.57.55-9.18,26.6c-.7,1.78-1.16,2.45-2.71,1.53l-4.44-2.3c-.88-.46-1.09-1.35-.74-2.58l10.15-31.95c.93-2.9,1.4-4.68,2.65-5.89Z"/><path class="cls-2" d="M2407.1,170.84c1.14-1.1,2.14-1,3,.38l60.48,88.92a2.61,2.61,0,0,1-.27,3.58l-5.67,5.51c-1.24,1.21-2.25,1.09-3.12-.26l-54.13-79.67-.56.55-9.19,26.6c-.69,1.78-1.15,2.44-2.7,1.52l-4.44-2.29c-.89-.46-1.1-1.36-.75-2.58l10.16-32c.93-2.89,1.4-4.67,2.65-5.89Z"/><path class="cls-2" d="M2540.19,154.85c10.85,15.91,9.14,35.23-6.26,50.23l-13,12.69c-15.4,15-31.47,13.21-42.43-2.81l-29.8-43.79c-10.85-15.91-9-35.34,6.38-50.34l13-12.68c15.4-15,31.35-13.11,42.31,2.92Zm-38.86-35c-7.12-10.72-18.39-11.88-27.45-3.06l-13,12.69c-9.06,8.82-10.24,22.11-3.12,32.83l29.8,43.78c7.12,10.72,18.39,11.88,27.45,3.06l13-12.68c9.06-8.83,10.24-22.12,3.12-32.84Z"/><path class="cls-2" d="M266.57,2154.53c10.85,15.92,9.13,35.24-6.26,50.24l-13,12.68c-15.4,15-31.47,13.22-42.43-2.81l-29.8-43.79c-10.85-15.91-9-35.34,6.38-50.34l13-12.68c15.4-15,31.35-13.11,42.31,2.92Zm-38.86-35c-7.12-10.72-18.39-11.88-27.45-3.05l-13,12.68c-9.06,8.82-10.24,22.11-3.12,32.83l29.8,43.79c7.12,10.72,18.39,11.87,27.45,3l13-12.68c9.06-8.82,10.24-22.11,3.12-32.83Z"/><path class="cls-2" d="M261.68,2045.67c1.14-1.1,2.14-1,3,.38L325.18,2135a2.6,2.6,0,0,1-.28,3.58l-5.66,5.51c-1.24,1.21-2.25,1.09-3.12-.27L262,2064.12l-.56.55-9.19,26.6c-.69,1.78-1.15,2.45-2.7,1.53l-4.44-2.29c-.89-.46-1.1-1.36-.75-2.58l10.15-32c.94-2.89,1.41-4.68,2.65-5.89Z"/><path class="cls-2" d="M394.73,2029.72c10.85,15.91,9.13,35.23-6.27,50.23l-13,12.69c-15.4,15-31.46,13.21-42.42-2.81L303.22,2046c-10.85-15.91-9-35.34,6.38-50.34l13-12.68c15.4-15,31.35-13.11,42.31,2.91Zm-38.86-35c-7.12-10.72-18.39-11.88-27.45-3.06l-13,12.69c-9.06,8.82-10.24,22.11-3.12,32.83l29.8,43.78c7.12,10.72,18.39,11.88,27.45,3.06l13-12.69c9.05-8.82,10.24-22.11,3.12-32.83Z"/><path class="cls-2" d="M389.84,1920.86c1.13-1.1,2.13-1,3,.38l60.48,88.92a2.6,2.6,0,0,1-.27,3.58l-5.66,5.51c-1.25,1.22-2.25,1.09-3.13-.26l-54.12-79.68-.57.56-9.19,26.6c-.69,1.78-1.15,2.44-2.7,1.52l-4.44-2.29c-.88-.46-1.1-1.36-.74-2.58l10.15-32c.93-2.89,1.4-4.67,2.65-5.89Z"/><path class="cls-2" d="M522.92,1904.87c10.85,15.91,9.14,35.24-6.26,50.23l-13,12.69c-15.4,15-31.47,13.21-42.43-2.81l-29.8-43.79c-10.85-15.91-9-35.34,6.38-50.34l13-12.68c15.4-15,31.35-13.11,42.31,2.92Zm-38.86-35c-7.12-10.72-18.39-11.88-27.45-3.06l-13,12.69c-9,8.82-10.24,22.11-3.12,32.83l29.8,43.78c7.12,10.72,18.39,11.88,27.45,3.06l13-12.68c9.06-8.83,10.24-22.12,3.12-32.83Z"/><path class="cls-2" d="M603.89,1826c10.85,15.91,9.13,35.23-6.27,50.23l-13,12.68c-15.4,15-31.46,13.22-42.42-2.81l-29.8-43.78c-10.85-15.91-9-35.34,6.37-50.34l13-12.69c15.39-15,31.35-13.1,42.31,2.92Zm-38.86-35c-7.12-10.72-18.39-11.88-27.45-3.06l-13,12.68c-9.06,8.83-10.24,22.12-3.12,32.84l29.8,43.78c7.12,10.72,18.39,11.88,27.44,3.06l13-12.69c9-8.82,10.24-22.11,3.12-32.83Z"/><path class="cls-2" d="M599,1717.16c1.13-1.1,2.13-1,3,.38l60.48,88.92a2.59,2.59,0,0,1-.27,3.57l-5.66,5.52c-1.25,1.21-2.25,1.09-3.13-.27l-54.12-79.67-.57.55-9.19,26.6c-.69,1.78-1.15,2.45-2.7,1.53l-4.44-2.29c-.89-.46-1.1-1.36-.75-2.59l10.16-32c.93-2.89,1.4-4.68,2.65-5.89Z"/><path class="cls-2" d="M732.06,1701.19c10.85,15.91,9.14,35.23-6.26,50.23l-13,12.69c-15.4,15-31.47,13.21-42.43-2.81l-29.8-43.79c-10.85-15.91-9-35.34,6.38-50.34l13-12.68c15.4-15,31.35-13.11,42.31,2.91Zm-38.86-35c-7.12-10.72-18.39-11.88-27.44-3.06l-13,12.69c-9.05,8.82-10.24,22.11-3.12,32.83l29.8,43.78c7.12,10.72,18.39,11.88,27.45,3.06l13-12.69c9.06-8.82,10.24-22.11,3.12-32.83Z"/><path class="cls-2" d="M813,1622.34c10.85,15.91,9.13,35.23-6.27,50.23l-13,12.68c-15.4,15-31.46,13.22-42.42-2.81l-29.8-43.79c-10.85-15.91-9-35.34,6.37-50.34l13-12.68c15.4-15,31.35-13.11,42.31,2.92Zm-38.86-35c-7.12-10.72-18.39-11.87-27.45-3l-13,12.68c-9.06,8.82-10.24,22.11-3.12,32.83l29.8,43.79c7.12,10.72,18.39,11.88,27.45,3.05l13-12.68c9-8.82,10.24-22.11,3.12-32.83Z"/><path class="cls-2" d="M808.14,1513.47c1.13-1.1,2.14-1,3,.38l60.48,88.92a2.59,2.59,0,0,1-.27,3.58l-5.66,5.51c-1.24,1.21-2.25,1.09-3.13-.27l-54.12-79.67-.56.56-9.19,26.59c-.7,1.79-1.15,2.45-2.7,1.53l-4.44-2.29c-.89-.46-1.1-1.36-.75-2.58l10.15-32c.93-2.89,1.41-4.67,2.65-5.89Z"/><path class="cls-2" d="M941.19,1497.52c10.85,15.91,9.13,35.23-6.26,50.23l-13,12.68c-15.39,15-31.46,13.22-42.42-2.81l-29.8-43.78c-10.85-15.91-9-35.34,6.38-50.34l13-12.69c15.4-15,31.35-13.1,42.31,2.92Zm-38.86-35c-7.12-10.72-18.39-11.88-27.45-3.06l-13,12.68c-9.06,8.83-10.24,22.12-3.12,32.83l29.8,43.79c7.12,10.72,18.39,11.88,27.45,3l13-12.68c9.06-8.82,10.24-22.11,3.12-32.83Z"/><path class="cls-2" d="M1022.18,1418.64c10.85,15.92,9.13,35.24-6.27,50.24l-13,12.68c-15.39,15-31.46,13.22-42.42-2.81L930.67,1435c-10.85-15.91-9-35.34,6.38-50.34l13-12.68c15.4-15,31.35-13.11,42.31,2.92Zm-38.86-35c-7.12-10.72-18.39-11.88-27.45-3l-13,12.68c-9.06,8.82-10.24,22.11-3.12,32.83l29.8,43.79c7.12,10.72,18.39,11.87,27.45,3l13-12.68c9-8.82,10.24-22.11,3.12-32.83Z"/><path class="cls-2" d="M1103.15,1339.79c10.84,15.91,9.13,35.23-6.27,50.23l-13,12.68c-15.4,15-31.46,13.22-42.42-2.81l-29.8-43.78c-10.85-15.91-9-35.35,6.37-50.35l13-12.68c15.4-15,31.36-13.1,42.31,2.92Zm-38.86-35c-7.12-10.72-18.39-11.88-27.45-3.06l-13,12.68c-9.06,8.83-10.24,22.12-3.13,32.83l29.81,43.79c7.12,10.72,18.39,11.88,27.44,3l13-12.68c9.06-8.82,10.25-22.11,3.13-32.83Z"/><path class="cls-2" d="M1184.08,1261c10.84,15.91,9.13,35.23-6.27,50.23l-13,12.68c-15.4,15-31.46,13.22-42.42-2.81l-29.8-43.78c-10.85-15.91-9-35.34,6.37-50.34l13-12.69c15.4-15,31.36-13.1,42.31,2.92Zm-38.86-35c-7.12-10.72-18.39-11.88-27.45-3.06l-13,12.68c-9.06,8.83-10.24,22.12-3.13,32.84l29.81,43.78c7.12,10.72,18.39,11.88,27.44,3.06l13-12.69c9.06-8.82,10.25-22.11,3.13-32.83Z"/><path class="cls-2" d="M1265.07,1182.09c10.85,15.92,9.13,35.24-6.27,50.24l-13,12.68c-15.39,15-31.46,13.21-42.42-2.81l-29.8-43.79c-10.85-15.91-9-35.34,6.37-50.34l13-12.68c15.39-15,31.35-13.11,42.31,2.92Zm-38.86-35c-7.12-10.72-18.39-11.88-27.45-3.05l-13,12.68c-9.06,8.82-10.24,22.11-3.12,32.83l29.8,43.79c7.12,10.72,18.39,11.87,27.45,3l13-12.68c9-8.83,10.24-22.12,3.12-32.83Z"/><path class="cls-2" d="M1260.16,1073.24c1.14-1.1,2.14-1,3,.38l60.48,88.92a2.61,2.61,0,0,1-.27,3.58l-5.67,5.51c-1.24,1.22-2.24,1.09-3.12-.26l-54.12-79.68-.57.56-9.19,26.6c-.69,1.78-1.15,2.44-2.7,1.52l-4.44-2.29c-.89-.46-1.1-1.36-.75-2.58l10.16-32c.93-2.89,1.4-4.67,2.65-5.89Z"/><path class="cls-2" d="M1393.22,1057.28c10.85,15.92,9.14,35.24-6.26,50.23l-13,12.69c-15.4,15-31.47,13.21-42.43-2.81l-29.8-43.79c-10.85-15.91-9-35.34,6.38-50.34l13-12.68c15.4-15,31.35-13.11,42.31,2.92Zm-38.86-35c-7.12-10.72-18.39-11.88-27.44-3.06l-13,12.69c-9.05,8.82-10.24,22.11-3.12,32.83l29.8,43.79c7.12,10.71,18.39,11.87,27.45,3l13-12.68c9.06-8.83,10.24-22.12,3.12-32.83Z"/><path class="cls-2" d="M1388.33,948.42c1.14-1.11,2.14-1,3,.37l60.48,88.93a2.59,2.59,0,0,1-.27,3.57l-5.67,5.52c-1.24,1.21-2.24,1.08-3.12-.27l-54.12-79.67-.57.55-9.19,26.6c-.69,1.78-1.15,2.45-2.7,1.53l-4.44-2.3c-.89-.46-1.1-1.35-.75-2.58l10.16-31.95c.93-2.9,1.4-4.68,2.65-5.89Z"/><path class="cls-2" d="M1521.42,932.43c10.84,15.92,9.13,35.24-6.27,50.23l-13,12.69c-15.4,15-31.47,13.21-42.42-2.81l-29.8-43.79c-10.85-15.91-9-35.34,6.37-50.34l13-12.68c15.4-15,31.36-13.11,42.31,2.92Zm-38.86-35c-7.12-10.72-18.39-11.88-27.45-3.06l-13,12.69c-9.06,8.82-10.25,22.11-3.13,32.83l29.81,43.79c7.11,10.71,18.38,11.87,27.44,3l13-12.68c9.06-8.83,10.25-22.12,3.13-32.83Z"/><path class="cls-2" d="M1602.38,853.59c10.84,15.91,9.13,35.23-6.27,50.23l-13,12.68c-15.4,15-31.47,13.22-42.42-2.81l-29.81-43.78c-10.84-15.92-9-35.35,6.38-50.35l13-12.68c15.4-15,31.35-13.1,42.31,2.92Zm-38.87-35c-7.11-10.72-18.38-11.87-27.44-3l-13,12.68c-9.06,8.82-10.25,22.12-3.13,32.83l29.81,43.79c7.11,10.72,18.38,11.88,27.44,3l13-12.68c9.06-8.82,10.25-22.11,3.13-32.83Z"/><path class="cls-2" d="M1597.47,744.74c1.13-1.1,2.14-1,3,.38L1661,834a2.59,2.59,0,0,1-.27,3.58l-5.66,5.51c-1.25,1.21-2.25,1.09-3.13-.27l-54.12-79.67-.57.55-9.18,26.6c-.7,1.78-1.15,2.45-2.71,1.53l-4.43-2.29c-.89-.46-1.1-1.36-.75-2.59l10.15-32c.93-2.89,1.4-4.68,2.65-5.89Z"/><path class="cls-2" d="M1730.56,728.75c10.85,15.91,9.13,35.23-6.26,50.23l-13,12.68c-15.39,15-31.46,13.22-42.42-2.81l-29.8-43.78c-10.85-15.92-9-35.35,6.38-50.34l13-12.69c15.4-15,31.35-13.1,42.31,2.92Zm-38.86-35c-7.12-10.71-18.39-11.87-27.45-3l-13,12.68c-9.06,8.83-10.24,22.12-3.12,32.83l29.8,43.79c7.12,10.72,18.39,11.88,27.45,3.05l13-12.68c9.06-8.82,10.24-22.11,3.12-32.83Z"/><path class="cls-2" d="M1811.52,649.9c10.85,15.91,9.14,35.23-6.26,50.23l-13,12.68c-15.4,15-31.47,13.22-42.43-2.81L1720,666.22c-10.85-15.91-9-35.35,6.38-50.34l13-12.69c15.4-15,31.35-13.1,42.31,2.92Zm-38.86-35c-7.12-10.71-18.39-11.87-27.45-3l-13,12.68c-9.06,8.83-10.24,22.12-3.12,32.83l29.8,43.79c7.12,10.72,18.39,11.88,27.45,3.06l13-12.69c9.06-8.82,10.24-22.11,3.12-32.83Z"/><path class="cls-2" d="M1806.63,541c1.13-1.11,2.14-1,3,.37l60.48,88.93a2.58,2.58,0,0,1-.27,3.57l-5.66,5.52c-1.25,1.21-2.25,1.09-3.13-.27l-54.12-79.67-.57.55-9.18,26.6c-.7,1.78-1.15,2.45-2.71,1.53l-4.43-2.3c-.89-.46-1.1-1.35-.75-2.58l10.15-31.95c.93-2.9,1.4-4.68,2.65-5.89Z"/><path class="cls-2" d="M1939.71,525.05c10.85,15.92,9.13,35.24-6.27,50.23l-13,12.69C1905,603,1889,601.18,1878,585.16l-29.8-43.79c-10.85-15.91-9-35.34,6.38-50.34l13-12.68c15.4-15,31.35-13.11,42.31,2.92Zm-38.86-35c-7.12-10.72-18.39-11.88-27.45-3l-13,12.68c-9.06,8.82-10.24,22.11-3.12,32.83l29.8,43.79c7.12,10.71,18.39,11.87,27.45,3l13-12.68c9-8.83,10.24-22.12,3.12-32.83Z"/><path class="cls-2" d="M1934.81,416.2c1.13-1.1,2.14-1,3,.38l60.48,88.92a2.59,2.59,0,0,1-.27,3.58l-5.66,5.51c-1.25,1.22-2.25,1.09-3.13-.26l-54.12-79.67-.57.55-9.18,26.6c-.7,1.78-1.15,2.44-2.71,1.53l-4.43-2.3c-.89-.46-1.1-1.36-.75-2.58l10.15-32c.93-2.89,1.4-4.67,2.65-5.89Z"/><path class="cls-2" d="M2067.89,400.22c10.85,15.91,9.13,35.23-6.27,50.23l-13,12.68c-15.39,15-31.46,13.22-42.42-2.81l-29.8-43.78c-10.85-15.92-9-35.35,6.38-50.34l13-12.69c15.4-15,31.35-13.1,42.31,2.92Zm-38.86-35c-7.12-10.71-18.39-11.87-27.45-3.05l-13,12.68c-9.06,8.83-10.24,22.12-3.12,32.83l29.8,43.79c7.12,10.72,18.39,11.88,27.45,3.05l13-12.68c9.05-8.82,10.24-22.11,3.12-32.83Z"/><path class="cls-2" d="M2148.83,321.39c10.85,15.91,9.14,35.23-6.26,50.23l-13,12.68c-15.4,15-31.47,13.22-42.42-2.81l-29.81-43.78c-10.84-15.91-9-35.35,6.38-50.34l13-12.69c15.4-15,31.35-13.1,42.31,2.92Zm-38.86-35c-7.11-10.72-18.38-11.88-27.44-3.06l-13,12.68c-9.06,8.83-10.25,22.12-3.13,32.83l29.8,43.79c7.12,10.72,18.39,11.88,27.45,3.06l13-12.69c9.06-8.82,10.25-22.11,3.13-32.83Z"/><path class="cls-2" d="M2144,212.52c1.13-1.1,2.14-1,3,.37l60.48,88.93a2.58,2.58,0,0,1-.27,3.57l-5.66,5.52c-1.24,1.21-2.25,1.09-3.13-.27L2144.26,231l-.57.55-9.18,26.6c-.7,1.78-1.15,2.45-2.7,1.53l-4.44-2.29c-.89-.46-1.1-1.36-.75-2.59l10.15-32c.93-2.89,1.41-4.68,2.65-5.89Z"/><path class="cls-2" d="M2191.16,166.54q1.71-1.65,3,.37l60.49,88.93a2.59,2.59,0,0,1-.28,3.57l-5.66,5.52c-1.24,1.21-2.25,1.09-3.12-.27L2191.47,185l-.56.55-9.19,26.6c-.69,1.78-1.15,2.45-2.7,1.53l-4.44-2.29c-.89-.46-1.1-1.36-.75-2.59L2184,176.84c.94-2.89,1.41-4.68,2.65-5.89Z"/><path class="cls-2" d="M2238.37,120.56c1.13-1.1,2.14-1,3,.38l60.48,88.93a2.58,2.58,0,0,1-.27,3.57l-5.66,5.51c-1.25,1.22-2.25,1.09-3.13-.26L2238.68,139l-.57.55-9.18,26.6c-.7,1.78-1.15,2.44-2.71,1.53l-4.43-2.3c-.89-.46-1.1-1.36-.75-2.58l10.15-31.95c.93-2.9,1.4-4.68,2.65-5.89Z"/><path class="cls-2" d="M2371.46,104.57c10.84,15.92,9.13,35.24-6.27,50.24l-13,12.68c-15.4,15-31.47,13.21-42.42-2.81L2280,120.89c-10.85-15.91-9-35.34,6.37-50.34l13-12.68c15.4-15,31.36-13.11,42.31,2.92Zm-38.86-35c-7.12-10.72-18.39-11.88-27.45-3l-13,12.68c-9.06,8.82-10.24,22.11-3.13,32.83l29.81,43.79c7.12,10.71,18.38,11.87,27.44,3l13-12.68c9.06-8.83,10.25-22.11,3.13-32.83Z"/><path class="cls-2" d="M96.84,2104.8c10.84,15.92,9.13,35.24-6.27,50.24l-13,12.68c-15.4,15-31.46,13.22-42.42-2.81l-29.8-43.79c-10.85-15.91-9-35.34,6.37-50.34l13-12.68c15.4-15,31.36-13.11,42.31,2.92Zm-38.86-35c-7.12-10.72-18.39-11.88-27.45-3.05l-13,12.68c-9.06,8.82-10.25,22.11-3.13,32.83l29.81,43.79c7.11,10.72,18.38,11.87,27.44,3l13-12.68c9.06-8.82,10.25-22.11,3.13-32.83Z"/><path class="cls-2" d="M92,1995.94c1.13-1.1,2.14-1,3,.38l60.48,88.92a2.59,2.59,0,0,1-.27,3.58l-5.66,5.51c-1.25,1.21-2.25,1.09-3.13-.27l-54.12-79.67-.57.55-9.18,26.6c-.7,1.78-1.15,2.45-2.71,1.53l-4.43-2.29c-.89-.46-1.1-1.36-.75-2.58l10.15-32c.93-2.89,1.4-4.68,2.65-5.89Z"/><path class="cls-2" d="M225,1980c10.85,15.91,9.14,35.23-6.26,50.23l-13,12.69c-15.4,15-31.47,13.21-42.42-2.81l-29.81-43.79c-10.84-15.91-9-35.34,6.38-50.34l13-12.68c15.4-15,31.35-13.11,42.31,2.91Zm-38.86-35c-7.12-10.72-18.39-11.88-27.44-3.06l-13,12.69c-9.06,8.82-10.25,22.11-3.13,32.83l29.8,43.78c7.12,10.72,18.39,11.88,27.45,3.06l13-12.69c9.06-8.82,10.24-22.11,3.13-32.83Z"/><path class="cls-2" d="M220.1,1871.13c1.13-1.1,2.14-1,3,.38l60.48,88.92a2.59,2.59,0,0,1-.27,3.58l-5.66,5.51c-1.24,1.21-2.25,1.09-3.12-.27l-54.13-79.67-.57.55-9.18,26.6c-.7,1.79-1.15,2.45-2.7,1.53l-4.44-2.29c-.89-.46-1.1-1.36-.75-2.58l10.15-32c.94-2.89,1.41-4.68,2.65-5.89Z"/><path class="cls-2" d="M353.19,1855.14c10.85,15.91,9.13,35.23-6.27,50.23l-13,12.69c-15.4,15-31.46,13.21-42.42-2.81l-29.8-43.79c-10.85-15.91-9-35.34,6.38-50.34l13-12.68c15.4-15,31.35-13.11,42.31,2.91Zm-38.86-35c-7.12-10.72-18.39-11.88-27.45-3.06l-13,12.69c-9.06,8.82-10.24,22.11-3.12,32.83l29.8,43.78c7.12,10.72,18.39,11.88,27.44,3.06l13-12.69c9.05-8.82,10.24-22.11,3.12-32.83Z"/><path class="cls-2" d="M434.15,1776.29c10.85,15.91,9.14,35.23-6.26,50.23l-13,12.68c-15.4,15-31.47,13.22-42.42-2.81l-29.81-43.78c-10.84-15.92-9-35.35,6.38-50.35l13-12.68c15.4-15,31.35-13.1,42.31,2.92Zm-38.86-35c-7.12-10.71-18.39-11.87-27.44-3l-13,12.68c-9.06,8.83-10.25,22.12-3.13,32.83l29.8,43.79c7.12,10.72,18.39,11.88,27.45,3l13-12.68c9.06-8.82,10.24-22.11,3.13-32.83Z"/><path class="cls-2" d="M429.26,1667.43c1.14-1.11,2.14-1,3,.37l60.49,88.93a2.59,2.59,0,0,1-.28,3.57l-5.66,5.52c-1.24,1.21-2.25,1.09-3.12-.27l-54.13-79.67-.56.55-9.19,26.6c-.69,1.78-1.15,2.45-2.7,1.53l-4.44-2.3c-.89-.45-1.1-1.35-.75-2.58l10.15-32c.94-2.9,1.41-4.68,2.65-5.89Z"/><path class="cls-2" d="M562.33,1651.46c10.85,15.91,9.13,35.23-6.27,50.23l-13,12.68c-15.4,15-31.46,13.22-42.42-2.81l-29.8-43.78c-10.85-15.92-9-35.35,6.38-50.35l13-12.68c15.4-15,31.35-13.1,42.31,2.92Zm-38.86-35c-7.12-10.71-18.39-11.87-27.45-3l-13,12.68c-9.06,8.83-10.24,22.12-3.12,32.83l29.8,43.79c7.12,10.72,18.39,11.88,27.45,3l13-12.68c9.05-8.82,10.24-22.11,3.12-32.83Z"/><path class="cls-2" d="M643.3,1572.6c10.84,15.92,9.13,35.24-6.27,50.23l-13,12.69c-15.4,15-31.46,13.21-42.42-2.81l-29.81-43.79c-10.84-15.91-9-35.34,6.38-50.34l13-12.68c15.4-15,31.35-13.11,42.31,2.92Zm-38.86-35c-7.12-10.72-18.39-11.88-27.45-3.06l-13,12.69c-9.06,8.82-10.25,22.11-3.13,32.83l29.81,43.79c7.11,10.71,18.38,11.87,27.44,3l13-12.68c9.06-8.83,10.25-22.12,3.13-32.83Z"/><path class="cls-2" d="M638.41,1463.74c1.13-1.11,2.14-1,3,.37L701.9,1553a2.58,2.58,0,0,1-.27,3.57l-5.66,5.52c-1.25,1.21-2.25,1.09-3.13-.27l-54.12-79.67-.57.55-9.18,26.6c-.7,1.78-1.15,2.45-2.71,1.53l-4.43-2.3c-.89-.45-1.1-1.35-.75-2.58l10.15-32c.93-2.9,1.4-4.68,2.65-5.89Z"/><path class="cls-2" d="M771.46,1447.78c10.85,15.92,9.13,35.24-6.27,50.24l-13,12.68c-15.4,15-31.46,13.22-42.42-2.81L680,1464.1c-10.85-15.91-9-35.34,6.38-50.34l13-12.68c15.4-15,31.35-13.11,42.31,2.92Zm-38.86-35c-7.12-10.72-18.39-11.87-27.45-3l-13,12.68c-9.06,8.82-10.24,22.11-3.12,32.83l29.8,43.79c7.12,10.72,18.39,11.88,27.44,3l13-12.68c9.05-8.82,10.24-22.11,3.12-32.83Z"/><path class="cls-2" d="M852.42,1368.94c10.85,15.91,9.13,35.23-6.27,50.23l-13,12.68c-15.4,15-31.46,13.22-42.42-2.81l-29.8-43.78c-10.85-15.92-9-35.35,6.37-50.35l13-12.68c15.4-15,31.36-13.1,42.32,2.92Zm-38.86-35c-7.12-10.71-18.39-11.87-27.45-3l-13,12.68c-9.06,8.83-10.24,22.12-3.13,32.83l29.81,43.79c7.12,10.72,18.39,11.88,27.44,3l13-12.68c9-8.82,10.24-22.11,3.12-32.83Z"/><path class="cls-2" d="M933.42,1290.05c10.84,15.92,9.13,35.24-6.27,50.24l-13,12.68c-15.4,15-31.47,13.21-42.42-2.81l-29.8-43.79c-10.85-15.91-9-35.34,6.37-50.34l13-12.68c15.4-15,31.36-13.11,42.31,2.92Zm-38.86-35c-7.12-10.72-18.39-11.88-27.45-3l-13,12.68c-9.06,8.82-10.25,22.11-3.13,32.83l29.81,43.79c7.11,10.71,18.38,11.87,27.44,3.05l13-12.68c9.06-8.83,10.25-22.12,3.13-32.83Z"/><path class="cls-2" d="M1014.35,1211.24c10.84,15.91,9.13,35.23-6.27,50.23l-13,12.68c-15.4,15-31.47,13.22-42.42-2.81l-29.81-43.79c-10.84-15.91-9-35.34,6.38-50.34l13-12.68c15.4-15,31.35-13.1,42.31,2.92Zm-38.86-35c-7.12-10.72-18.39-11.87-27.45-3l-13,12.68c-9.06,8.83-10.25,22.12-3.13,32.83l29.81,43.79c7.11,10.72,18.38,11.88,27.44,3l13-12.68c9.06-8.82,10.25-22.11,3.13-32.83Z"/><path class="cls-2" d="M1095.31,1132.39c10.85,15.91,9.13,35.23-6.27,50.23l-13,12.68c-15.4,15-31.46,13.22-42.42-2.81l-29.8-43.78c-10.85-15.92-9-35.35,6.37-50.35l13-12.68c15.39-15,31.35-13.1,42.31,2.92Zm-38.86-35c-7.12-10.72-18.39-11.87-27.45-3.05l-13,12.68c-9.06,8.83-10.24,22.12-3.12,32.83l29.8,43.79c7.12,10.72,18.39,11.88,27.45,3l13-12.68c9-8.82,10.24-22.11,3.12-32.83Z"/><path class="cls-2" d="M1090.4,1023.54c1.14-1.11,2.14-1,3,.37l60.48,88.93a2.6,2.6,0,0,1-.27,3.57l-5.67,5.52c-1.24,1.21-2.24,1.09-3.12-.27L1090.71,1042l-.56.55-9.19,26.6c-.69,1.78-1.15,2.45-2.7,1.53l-4.44-2.3c-.89-.46-1.1-1.35-.75-2.58l10.16-32c.93-2.9,1.4-4.68,2.65-5.89Z"/><path class="cls-2" d="M1223.49,1007.55c10.85,15.91,9.14,35.23-6.26,50.23l-13,12.68c-15.4,15-31.47,13.22-42.43-2.81l-29.8-43.78c-10.85-15.92-9-35.35,6.38-50.35l13-12.68c15.4-15,31.35-13.1,42.31,2.92Zm-38.86-35c-7.12-10.72-18.39-11.87-27.44-3.05l-13,12.68c-9.05,8.83-10.24,22.12-3.12,32.83l29.8,43.79c7.12,10.72,18.39,11.88,27.45,3.05l13-12.68c9.06-8.82,10.24-22.11,3.13-32.83Z"/><path class="cls-2" d="M1218.61,898.68c1.13-1.1,2.13-1,3,.38L1282.1,988a2.59,2.59,0,0,1-.27,3.58l-5.66,5.51c-1.25,1.21-2.25,1.09-3.13-.27l-54.12-79.67-.57.55-9.19,26.6c-.69,1.78-1.15,2.45-2.7,1.53l-4.44-2.29c-.89-.46-1.1-1.36-.75-2.58l10.16-32c.93-2.89,1.4-4.68,2.65-5.89Z"/><path class="cls-2" d="M1351.69,882.7c10.84,15.91,9.13,35.23-6.27,50.23l-13,12.68c-15.4,15-31.46,13.22-42.42-2.81L1260.18,899c-10.85-15.92-9-35.35,6.37-50.35l13-12.68c15.4-15,31.36-13.1,42.31,2.92Zm-38.86-35c-7.12-10.72-18.39-11.87-27.45-3.05l-13,12.68c-9.06,8.83-10.24,22.12-3.13,32.83L1299,934c7.12,10.72,18.38,11.88,27.44,3l13-12.68c9.06-8.82,10.25-22.11,3.13-32.83Z"/><path class="cls-2" d="M1432.65,803.85c10.84,15.91,9.13,35.23-6.27,50.23l-13,12.68c-15.4,15-31.47,13.22-42.42-2.81l-29.8-43.78c-10.85-15.91-9-35.34,6.37-50.34l13-12.69c15.4-15,31.36-13.1,42.31,2.92Zm-38.86-35c-7.12-10.72-18.39-11.88-27.45-3.06l-13,12.69c-9.06,8.82-10.25,22.11-3.13,32.83L1380,855.13c7.11,10.72,18.38,11.88,27.44,3.06l13-12.69c9.06-8.82,10.25-22.11,3.13-32.83Z"/><path class="cls-2" d="M1427.74,695c1.13-1.1,2.14-1,3,.38l60.48,88.92a2.59,2.59,0,0,1-.27,3.58l-5.66,5.51c-1.24,1.22-2.25,1.09-3.13-.26l-54.12-79.67-.57.55-9.18,26.6c-.7,1.78-1.15,2.44-2.7,1.53l-4.44-2.3c-.89-.46-1.1-1.36-.75-2.58l10.15-32c.93-2.89,1.41-4.67,2.65-5.89Z"/><path class="cls-2" d="M1560.83,679c10.85,15.91,9.13,35.23-6.26,50.23l-13,12.68c-15.39,15-31.46,13.22-42.42-2.8l-29.8-43.79c-10.85-15.91-9-35.34,6.38-50.34l13-12.69c15.4-15,31.35-13.1,42.31,2.92Zm-38.86-35c-7.12-10.72-18.39-11.88-27.45-3.06l-13,12.69c-9.06,8.82-10.24,22.11-3.12,32.83l29.8,43.78c7.12,10.72,18.39,11.88,27.45,3.06l13-12.69c9.06-8.82,10.24-22.11,3.12-32.83Z"/><path class="cls-2" d="M1641.79,600.16c10.85,15.91,9.14,35.23-6.26,50.23l-13,12.68c-15.4,15-31.47,13.22-42.43-2.81l-29.8-43.78c-10.84-15.91-9-35.34,6.38-50.34l13-12.69c15.4-15,31.35-13.1,42.31,2.92Zm-38.86-35c-7.12-10.72-18.39-11.88-27.44-3.06l-13,12.69c-9.06,8.82-10.25,22.11-3.13,32.83l29.8,43.78c7.12,10.72,18.39,11.88,27.45,3.06l13-12.69c9.06-8.82,10.24-22.11,3.13-32.83Z"/><path class="cls-2" d="M1636.87,491.33c1.13-1.1,2.14-1,3,.37l60.48,88.93a2.58,2.58,0,0,1-.27,3.57l-5.66,5.52c-1.24,1.21-2.25,1.09-3.12-.27l-54.13-79.67-.56.55-9.19,26.6c-.7,1.78-1.15,2.45-2.7,1.53l-4.44-2.29c-.89-.46-1.1-1.36-.75-2.59l10.15-32c.94-2.89,1.41-4.68,2.65-5.89Z"/><path class="cls-2" d="M1770,475.34c10.85,15.92,9.14,35.24-6.26,50.23l-13,12.69c-15.4,15-31.47,13.21-42.42-2.81l-29.81-43.79c-10.84-15.91-9-35.34,6.38-50.34l13-12.68c15.4-15,31.35-13.11,42.31,2.92Zm-38.86-35c-7.12-10.72-18.38-11.88-27.44-3.05l-13,12.68c-9.06,8.82-10.25,22.11-3.13,32.83l29.8,43.79c7.12,10.71,18.39,11.87,27.45,3l13-12.68c9.06-8.83,10.24-22.12,3.13-32.83Z"/><path class="cls-2" d="M1765.08,366.46c1.13-1.1,2.14-1,3,.38l60.48,88.93a2.58,2.58,0,0,1-.27,3.57l-5.66,5.51c-1.24,1.22-2.25,1.09-3.12-.26l-54.13-79.67-.56.55-9.19,26.6c-.7,1.78-1.15,2.44-2.7,1.53l-4.44-2.3c-.89-.46-1.1-1.36-.75-2.58l10.15-32c.94-2.89,1.41-4.67,2.65-5.88Z"/><path class="cls-2" d="M1898.13,350.51c10.85,15.91,9.14,35.23-6.26,50.23l-13,12.68c-15.4,15-31.47,13.22-42.42-2.81l-29.81-43.78c-10.84-15.92-9-35.35,6.38-50.34l13-12.69c15.4-15,31.35-13.1,42.31,2.92Zm-38.86-35c-7.12-10.71-18.38-11.87-27.44-3.05l-13,12.68c-9.06,8.83-10.25,22.12-3.13,32.83l29.8,43.79c7.12,10.72,18.39,11.88,27.45,3l13-12.68c9.06-8.82,10.24-22.11,3.13-32.83Z"/><path class="cls-2" d="M1979.11,271.65c10.84,15.91,9.13,35.23-6.27,50.23l-13,12.68c-15.4,15-31.46,13.22-42.42-2.81L1887.6,288c-10.85-15.91-9-35.35,6.37-50.34l13-12.69c15.4-15,31.36-13.1,42.31,2.92Zm-38.86-35c-7.12-10.71-18.39-11.87-27.45-3.05l-13,12.68c-9.06,8.83-10.24,22.12-3.13,32.83l29.81,43.79c7.12,10.72,18.39,11.88,27.44,3.06l13-12.69c9.06-8.82,10.25-22.11,3.13-32.83Z"/><path class="cls-2" d="M1974.2,162.81c1.13-1.11,2.13-1,3,.37l60.48,88.93a2.58,2.58,0,0,1-.27,3.57l-5.66,5.52c-1.25,1.21-2.25,1.08-3.13-.27l-54.12-79.67-.57.55-9.18,26.6c-.7,1.78-1.16,2.44-2.71,1.53l-4.44-2.3c-.88-.46-1.09-1.35-.74-2.58L1967,173.11c.93-2.9,1.4-4.68,2.65-5.89Z"/><path class="cls-2" d="M2021.44,116.8q1.69-1.65,3,.37l60.48,88.93a2.59,2.59,0,0,1-.27,3.58l-5.66,5.51c-1.25,1.21-2.25,1.09-3.13-.27l-54.12-79.67-.57.55L2012,162.4c-.7,1.78-1.16,2.45-2.71,1.53l-4.44-2.29c-.88-.46-1.1-1.36-.74-2.59l10.15-32c.93-2.89,1.4-4.68,2.65-5.89Z"/><path class="cls-2" d="M2068.64,70.82q1.71-1.65,3,.38l60.49,88.93a2.59,2.59,0,0,1-.28,3.57l-5.66,5.51c-1.24,1.22-2.25,1.09-3.12-.26L2069,89.28l-.56.55-9.19,26.6c-.69,1.78-1.15,2.44-2.7,1.53l-4.44-2.3c-.89-.46-1.1-1.36-.75-2.58l10.15-31.95c.94-2.9,1.41-4.68,2.65-5.89Z"/><path class="cls-2" d="M2201.73,54.83c10.85,15.92,9.14,35.24-6.26,50.24l-13,12.68c-15.4,15-31.47,13.21-42.43-2.81l-29.8-43.79c-10.85-15.91-9-35.34,6.38-50.34l13-12.68C2145-6.87,2161-5,2171.93,11.05Zm-38.86-35c-7.12-10.72-18.39-11.88-27.45-3.05l-13,12.68c-9.06,8.82-10.24,22.11-3.12,32.83l29.8,43.79c7.12,10.71,18.39,11.87,27.45,3l13-12.68c9.06-8.83,10.24-22.11,3.12-32.83Z"/></g></svg>